<?xml version="1.0" encoding="UTF-8"?>
<svg version="1.1" xmlns="http://www.w3.org/2000/svg" width="1680" height="475">
<path d="M0 0 C186.97630312 0 186.97630312 0 208.52929688 20.51757812 C221.16459879 33.25355974 225.37074244 49.78603929 230.5 66.4375 C231.15076562 68.53548603 231.80181684 70.6333835 232.453125 72.73120117 C238.93536106 93.65048667 245.29390231 114.60807477 251.65820312 135.56347656 C260.53616155 164.79417502 269.48052073 194.00432324 278.45783234 223.20465469 C281.06879068 231.69745716 283.67132628 240.19266011 286.25354004 248.69425964 C287.47524246 252.71449307 288.70257071 256.7329934 289.93115234 260.75112915 C290.46887022 262.5152053 291.00379164 264.28013675 291.53564453 266.04598999 C292.2405267 268.38579126 292.95492154 270.72246866 293.671875 273.05859375 C294.0544043 274.31986084 294.43693359 275.58112793 294.83105469 276.88061523 C295.90735573 279.75277446 297.00780927 281.69648458 299 284 C300.91466367 283.87822312 300.91466367 283.87822312 303 283 C306.53694539 278.3397903 307.81305489 272.66020228 309.45703125 267.13671875 C309.79225296 266.03077362 310.12747467 264.92482849 310.47285461 263.78536987 C311.3974793 260.73108689 312.31615185 257.67508502 313.23258209 254.61833572 C314.21538442 251.34609699 315.20628794 248.07631497 316.19677734 244.80639648 C317.4635781 240.62280832 318.72977607 236.43904272 319.99291992 232.25434875 C324.53372484 217.21217483 329.12424731 202.18528284 333.71929932 187.15960693 C334.89498757 183.3150924 336.06991959 179.47034728 337.24458694 175.62552071 C343.58817816 154.86242262 349.94957628 134.10487646 356.35131836 113.35961914 C359.64123947 102.69435365 362.90729292 92.02241233 366.140625 81.33984375 C367.16178055 77.97425206 368.18338048 74.60879558 369.20510864 71.24337769 C369.8490553 69.11737953 370.49079792 66.99071226 371.13009644 64.86331177 C378.15688901 41.48069317 385.50664178 21.5476552 407.86328125 8.7109375 C409.21552142 7.98383818 410.57358125 7.26744861 411.9375 6.5625 C412.54480957 6.24434326 413.15211914 5.92618652 413.77783203 5.59838867 C425.27560865 0.0351899 437.392256 -0.43129529 449.89770508 -0.34057617 C451.55477381 -0.33972797 453.21184366 -0.34020881 454.86891174 -0.34190369 C459.32677858 -0.34275753 463.78439875 -0.32523188 468.24220872 -0.30418181 C472.91599131 -0.28531205 477.58978077 -0.28365651 482.26359558 -0.28010559 C491.09595888 -0.27081518 499.92820958 -0.24624246 508.7605235 -0.21605712 C518.82349546 -0.1824191 528.88647306 -0.16600355 538.94948733 -0.15097082 C559.63305418 -0.11968994 580.31651997 -0.06698844 601 0 C601.01710978 44.98490815 601.0330315 89.96981665 601.04234314 134.95472717 C601.0424812 135.61998524 601.04261925 136.2852433 601.04276149 136.9706607 C601.04575405 151.42676251 601.04852428 165.88286435 601.05106533 180.33896625 C601.05231272 187.42771904 601.05360927 194.51647183 601.05493164 201.60522461 C601.05512778 202.6633771 601.05512778 202.6633771 601.05532788 203.7429064 C601.05959305 226.628772 601.0671072 249.51463513 601.07629722 272.40049923 C601.08598691 296.5744516 601.0919936 320.74840242 601.09408849 344.92235667 C601.09546407 359.41261806 601.09981651 373.9028724 601.10791647 388.39313162 C601.11318188 398.31496857 601.11480477 408.23680184 601.11350138 418.15864008 C601.11285767 423.89229826 601.11387912 429.62594406 601.11920547 435.35960007 C601.12403785 440.59943984 601.12433972 445.83925879 601.12089889 451.07909948 C601.12047304 452.98354656 601.12177013 454.88799488 601.12488318 456.79243945 C601.12884449 459.36350355 601.12676507 461.93449056 601.12304783 464.50555325 C601.12567484 465.26017728 601.12830186 466.01480131 601.13100848 466.79229274 C601.1141458 471.8858542 601.1141458 471.8858542 600 473 C598.15469827 473.09866627 596.30557912 473.12632156 594.4576416 473.12698364 C593.25448807 473.12980347 592.05133453 473.13262329 590.8117218 473.13552856 C589.46627793 473.13358397 588.1208342 473.13153579 586.77539062 473.12939453 C585.3680161 473.13074854 583.96064193 473.13252847 582.55326843 473.13470459 C578.72072932 473.13927895 574.88821701 473.13748935 571.05567741 473.1343255 C567.05359701 473.13180192 563.05151897 473.13413944 559.04943848 473.13571167 C552.32738837 473.13753337 545.60534923 473.13512705 538.88330078 473.13037109 C531.10061276 473.12492847 523.31795093 473.12669113 515.53526354 473.1321975 C508.86521699 473.13672862 502.19517834 473.13737918 495.52513075 473.13475883 C491.53614338 473.13319605 487.54716835 473.13300232 483.55818176 473.13629532 C479.80884888 473.13917402 476.05954992 473.13719837 472.31022072 473.13140106 C470.93029143 473.13007346 469.55035931 473.13046759 468.17043114 473.13266373 C466.29440789 473.13537517 464.41837845 473.13138046 462.5423584 473.12698364 C461.49004784 473.12660662 460.43773727 473.12622959 459.35353851 473.12584114 C457 473 457 473 456 472 C455.90093938 470.51817112 455.8715348 469.03163158 455.86971474 467.54649639 C455.86609039 466.57858817 455.86246604 465.61067994 455.85873187 464.61344117 C455.86033424 462.99937771 455.86033424 462.99937771 455.86196899 461.35270691 C455.85914771 460.21944719 455.85632643 459.08618747 455.85341966 457.91858655 C455.8450306 454.08919091 455.84373175 450.25982402 455.84228516 446.43041992 C455.83818879 443.69787884 455.83254406 440.96534159 455.82688904 438.23280334 C455.81534615 432.33255866 455.80711086 426.43231686 455.80076981 420.53206444 C455.79046107 411.20969625 455.76990199 401.88736393 455.74765015 392.5650177 C455.74016985 389.37811196 455.7327562 386.19120606 455.72536278 383.00430012 C455.72351221 382.20778323 455.72166165 381.41126635 455.719755 380.59061259 C455.69881408 371.51703623 455.67999252 362.44345591 455.66210938 353.36987305 C455.66047119 352.54009688 455.65883301 351.71032072 455.65714519 350.85539982 C455.63085881 337.40779649 455.61221714 323.9601904 455.59551747 310.51257225 C455.57810893 296.71729749 455.54927615 282.92207678 455.5106281 269.12684518 C455.4872012 260.61180485 455.47323112 252.09685263 455.47130047 243.58177982 C455.46919428 237.74757432 455.45629189 231.91345651 455.43482114 226.07929035 C455.42276907 222.71067622 455.4172808 219.34238415 455.42153358 215.97372818 C455.42540519 212.32504086 455.41104803 208.6768729 455.39199829 205.02824402 C455.39752799 203.95889388 455.40305768 202.88954374 455.40875494 201.78778905 C455.3999151 200.81205758 455.39107526 199.83632612 455.38196754 198.83102703 C455.38061102 197.98858997 455.37925449 197.14615291 455.37785685 196.27818745 C454.91178817 193.46815022 453.9092439 192.08342874 452 190 C450.11191846 189.23782757 450.11191846 189.23782757 448.0625 189.125 C447.39347656 189.04507813 446.72445313 188.96515625 446.03515625 188.8828125 C443.48515625 189.02964551 442.1514574 189.61686968 440 191 C438.81543806 193.07432499 438.81543806 193.07432499 438.06079102 195.62768555 C437.72935089 196.62142181 437.39791077 197.61515808 437.056427 198.63900757 C436.70780609 199.74813507 436.35918518 200.85726257 436 202 C435.62277802 203.1805899 435.24555603 204.36117981 434.85690308 205.57754517 C433.55276232 209.69562948 432.28990883 213.82605093 431.02734375 217.95703125 C430.54728085 219.52025696 430.06696838 221.08340605 429.58642578 222.64648438 C428.30048216 226.83182275 427.01801979 231.0182202 425.73624802 235.2048378 C424.39007699 239.59966474 423.04067448 243.99349934 421.69165039 248.38745117 C419.23225806 256.39976179 416.7756792 264.41293155 414.32054234 272.42654705 C412.6338748 277.9317792 410.94635943 283.43675025 409.2578125 288.94140625 C409.0434061 289.6403727 408.82899969 290.33933914 408.60809612 291.05948639 C408.18541034 292.43742943 407.76272252 293.81537184 407.34003258 295.1933136 C402.905417 309.65055438 398.4766884 324.10959495 394.05023193 338.56933594 C393.02530093 341.91735255 392.00022797 345.26532566 390.97509766 348.61328125 C387.20326408 360.93166577 387.20326408 360.93166577 383.43286133 373.25048828 C380.64135859 382.37283437 377.84884743 391.49486602 375.05183411 400.61552429 C373.73253423 404.91771901 372.41380252 409.22008776 371.09518433 413.52249146 C370.45373782 415.61506666 369.81207885 417.70757675 369.17019653 419.80001831 C366.12275207 429.73566728 363.0826868 439.67275992 360.12890625 449.63671875 C359.91478088 450.35770248 359.70065552 451.07868622 359.4800415 451.82151794 C358.51676069 455.06738932 357.55933967 458.31466033 356.61181641 461.56518555 C356.12914307 463.19967651 356.12914307 463.19967651 355.63671875 464.8671875 C355.36561279 465.79644043 355.09450684 466.72569336 354.81518555 467.68310547 C354 470 354 470 352 473 C350.14531517 473.36914349 350.14531517 473.36914349 347.84921265 473.36076355 C346.54510185 473.36694954 346.54510185 473.36694954 345.21464539 473.3732605 C344.25870987 473.36247467 343.30277435 473.35168884 342.31787109 473.34057617 C341.31296127 473.34101425 340.30805145 473.34145233 339.27268982 473.34190369 C335.93941046 473.33980777 332.60662937 473.31643865 329.2734375 473.29296875 C326.96701329 473.28737566 324.66058553 473.28310421 322.35415649 473.28010559 C316.27459933 473.26863428 310.19525613 473.23914735 304.11578369 473.20599365 C297.91576024 473.17534203 291.71570233 473.16161076 285.515625 473.14648438 C273.34365583 473.11427992 261.17184569 473.06305594 249 473 C246.81349093 467.64489698 244.67505769 462.32168785 242.97973633 456.78662109 C242.63384964 455.66465332 242.28796295 454.54268555 241.93159485 453.38671875 C241.56873886 452.19433594 241.20588287 451.00195312 240.83203125 449.7734375 C240.43627924 448.48377899 240.04016645 447.19423114 239.64372253 445.90478516 C238.58218074 442.44815223 237.52598147 438.98990866 236.47088623 435.53130341 C235.58432203 432.62768648 234.69451404 429.72506802 233.80465889 426.82245827 C227.18907985 405.2427747 220.61801693 383.6493108 214.08520508 362.04443359 C210.19145464 349.17346187 206.25636287 336.31570906 202.296875 323.46484375 C198.05750206 309.70547228 193.83751578 295.94035975 189.640625 282.16796875 C189.37753036 281.30463676 189.11443573 280.44130478 188.84336853 279.55181122 C187.24610089 274.30988201 185.64955126 269.06773432 184.05328369 263.82550049 C182.7036804 259.39337499 181.35384859 254.96131912 180.00390625 250.52929688 C179.73864891 249.65841494 179.47339157 248.787533 179.20009613 247.8902607 C177.16113783 241.19684035 175.11981716 234.50414251 173.07718658 227.81184196 C171.7526716 223.47129268 170.43158962 219.12972583 169.11447525 214.78692532 C168.19870252 211.76992045 167.27866216 208.75421679 166.359375 205.73828125 C166.04156067 204.68585739 165.72374634 203.63343353 165.39630127 202.54911804 C165.10535583 201.59745255 164.8144104 200.64578705 164.51464844 199.6652832 C164.26793396 198.85275589 164.02121948 198.04022858 163.76702881 197.20307922 C162.29632838 192.96008286 162.29632838 192.96008286 159.375 189.6875 C155.88187179 188.67633131 152.43907821 188.77125337 149 190 C146.30367248 192.94231986 145.62440581 194.87302211 145.61803246 198.83102703 C145.60477269 200.29462423 145.60477269 200.29462423 145.59124506 201.78778905 C145.59677475 202.85713919 145.60230445 203.92648933 145.60800171 205.02824402 C145.60206045 206.16618371 145.59611919 207.3041234 145.58999789 208.47654611 C145.57363899 212.30371697 145.57866442 216.13056517 145.58349609 219.95776367 C145.57778706 222.69562408 145.56755561 225.43346307 145.55747986 228.17131042 C145.53808375 234.07315857 145.52951732 239.97494278 145.52817917 245.87682152 C145.52614144 254.41104444 145.50669021 262.94515867 145.48278125 271.47934512 C145.44436823 285.32663208 145.41856323 299.1739117 145.40136719 313.02124023 C145.38462475 326.470795 145.36444332 339.92033376 145.33789062 353.36987305 C145.33544049 354.61302576 145.33544049 354.61302576 145.33294086 355.88129266 C145.31498658 364.9222986 145.29564239 373.96330076 145.27463722 383.00430012 C145.2727958 383.79803739 145.27095438 384.59177467 145.26905716 385.40956459 C145.26167882 388.58184755 145.25428539 391.75413047 145.24671336 394.92641298 C145.22454687 404.22761676 145.20675666 413.52880484 145.19676055 422.83003006 C145.19039427 428.65994463 145.18085705 434.48984781 145.16879199 440.31975337 C145.16198766 443.68793183 145.1574785 447.05607528 145.15620613 450.424263 C145.15464647 454.06710208 145.14709992 457.70987999 145.13803101 461.35270691 C145.13909926 462.42874922 145.14016751 463.50479152 145.14126813 464.61344117 C145.13583161 466.0653035 145.13583161 466.0653035 145.13028526 467.54649639 C145.12925344 468.38844639 145.12822161 469.2303964 145.12715852 470.09786004 C145 472 145 472 144 473 C96.48 473 48.96 473 0 473 C0 316.91 0 160.82 0 0 Z " fill="#FFFFFF" transform="translate(0,0)"/>
<path d="M0 0 C47.52 0 95.04 0 144 0 C144.03738281 19.77035156 144.07476563 39.54070313 144.11328125 59.91015625 C144.14354549 72.41081401 144.17454243 84.91146346 144.20898438 97.41210938 C144.22703458 103.97745708 144.24489855 110.54280524 144.26245117 117.1081543 C144.2657627 118.34244562 144.2657627 118.34244562 144.26914114 119.60167211 C144.30451225 132.88657743 144.32936999 146.17148268 144.35034702 159.45641763 C144.37210862 173.09008874 144.40516246 186.72369874 144.44870156 200.35731786 C144.4752121 208.77016772 144.49291187 217.18294142 144.49934604 225.59583097 C144.50460175 231.36466402 144.52082489 237.13340124 144.54566566 242.90218294 C144.55967461 246.23065193 144.56722833 249.55880288 144.56500816 252.88732338 C144.56336009 256.49780188 144.58001604 260.10774917 144.60127258 263.71815491 C144.59642501 264.7677758 144.59157743 265.81739669 144.58658296 266.89882427 C144.64288621 272.68524304 145.15099583 276.91231486 148 282 C151.13032236 283.56516118 154.59073084 283.540337 158 283 C161.45580347 280.86924177 162.8545437 278.82325165 164.48828125 275.14453125 C164.93937256 274.14631348 165.39046387 273.1480957 165.85522461 272.11962891 C166.33612549 271.02827637 166.81702637 269.93692383 167.3125 268.8125 C168.38156384 266.440843 169.45193576 264.06977532 170.5234375 261.69921875 C170.8030986 261.07692383 171.0827597 260.45462891 171.37089539 259.81347656 C174.33541379 253.22288408 177.40698506 246.68373668 180.48596191 240.14602661 C182.08493705 236.74987111 183.67927298 233.35154069 185.2734375 229.953125 C185.58756592 229.28358292 185.90169434 228.61404083 186.2253418 227.92420959 C189.35525348 221.24925908 192.46124399 214.56331379 195.5625 207.875 C199.98948249 198.32841011 204.42486885 188.785818 208.875 179.25 C209.30800415 178.3221167 209.30800415 178.3221167 209.74975586 177.37548828 C214.65778009 166.86004978 219.5846564 156.35349314 224.51358032 145.84783936 C229.42106914 135.38617143 234.29948033 124.91140013 239.16088867 114.42822266 C244.509219 102.89631871 249.87983607 91.37490524 255.26252747 79.85900879 C256.82632016 76.51317773 258.38885262 73.16676656 259.94921875 69.81933594 C281.16547711 24.30759231 281.16547711 24.30759231 287 18 C287.59683594 17.3503125 288.19367188 16.700625 288.80859375 16.03125 C293.38871411 11.52905229 298.37549799 8.49810025 304.0625 5.625 C304.7229834 5.29113281 305.3834668 4.95726562 306.06396484 4.61328125 C355.31776654 -19.10467528 415.33302237 0 470 0 C470 156.09 470 312.18 470 473 C422.48 473 374.96 473 326 473 C324.79570121 470.59140242 324.87786994 469.10375265 324.8825388 466.41341782 C324.88178114 465.44126855 324.88102349 464.46911928 324.88024288 463.46751094 C324.88665851 461.85402668 324.88665851 461.85402668 324.89320374 460.20794678 C324.89376044 459.07116021 324.89431715 457.93437365 324.89489073 456.76313901 C324.89794342 452.9276835 324.90813743 449.09227896 324.91821289 445.25683594 C324.92233325 442.51754341 324.92491284 439.77825003 324.92750549 437.03895569 C324.9338127 431.12671933 324.94355891 425.21449671 324.95540047 419.30226898 C324.97235445 410.74757886 324.98192357 402.19289218 324.9892792 393.63818899 C325.00123487 379.75113885 325.01618701 365.86409409 325.03442383 351.97705078 C325.03551395 351.14537413 325.03660407 350.31369747 325.03772723 349.45681849 C325.0533324 337.65820495 325.07192383 325.85959799 325.0917251 314.06099084 C325.09311842 313.23052695 325.09451173 312.40006306 325.09594727 311.54443359 C325.0973408 310.71497969 325.09873433 309.88552579 325.10017008 309.03093693 C325.12320346 295.20175687 325.13852047 281.37258106 325.14750665 267.54338479 C325.15336181 259.01061739 325.16574093 250.47790825 325.18647944 241.94516382 C325.20018646 236.09697776 325.20668038 230.24881208 325.20748956 224.40061012 C325.20819371 221.0257035 325.21328907 217.65095309 325.2249527 214.27605629 C325.2371096 210.61730489 325.23699136 206.95875323 325.23377991 203.29998779 C325.24028771 202.23325451 325.24679551 201.16652122 325.25350052 200.06746268 C325.23619296 195.01425227 325.14450695 190.68588699 323 186 C320.49937318 183.86983641 318.87133243 183.99532118 315.5625 183.875 C310.47632207 185.48116145 309.45016319 188.44231674 307 193 C304.92693097 197.16650148 302.98866773 201.38891153 301.0625 205.625 C300.49533603 206.86112714 299.92753143 208.09696052 299.35913086 209.33251953 C298.16989128 211.91811449 296.98279387 214.50467734 295.796875 217.09179688 C293.20208041 222.74429067 290.56774075 228.37828584 287.93331909 234.01239014 C286.76116437 236.51953193 285.59043405 239.02733783 284.41966248 241.53512573 C283.53528699 243.42940747 282.65071779 245.32359864 281.76611328 247.21777344 C279.13434313 252.8534649 276.50437431 258.48999695 273.87426758 264.12646484 C272.9989231 266.00230778 272.12349827 267.87811321 271.24804688 269.75390625 C268.63157905 275.36016729 266.01539123 280.9665581 263.40068054 286.57363892 C261.95481505 289.67418343 260.50871793 292.77461986 259.0625 295.875 C258.6322905 296.79729401 258.6322905 296.79729401 258.19338989 297.73822021 C253.93657152 306.86285069 249.66618356 315.98105251 245.38934326 325.09631348 C239.84666325 336.90956119 234.32879574 348.73378063 228.83911133 360.57177734 C223.490781 372.10368129 218.12016393 383.62509476 212.73747253 395.14099121 C211.17367984 398.48682227 209.61114738 401.83323344 208.05078125 405.18066406 C204.24841562 413.33706022 200.43249468 421.48677954 196.59033203 429.62451172 C195.6201683 431.68368945 194.65396942 433.74474895 193.69482422 435.80908203 C185.87674077 452.63123237 176.30641044 461.77204718 159.56640625 469.73828125 C109.41260024 487.48163212 53.19991313 473 0 473 C0 316.91 0 160.82 0 0 Z " fill="#FFFFFF" transform="translate(669,0)"/>
<path d="M0 0 C42.8121048 -0.06879075 85.62420318 -0.1215919 128.43635238 -0.15319599 C133.50021157 -0.15694774 138.56407066 -0.16083074 143.62792969 -0.16479492 C145.14000105 -0.16597532 145.14000105 -0.16597532 146.68261932 -0.16717956 C162.96665381 -0.18020408 179.25065626 -0.2038415 195.5346718 -0.23145839 C212.26573964 -0.25959505 228.99679079 -0.27619366 245.72788131 -0.28226548 C256.03702444 -0.28636486 266.34607697 -0.29927314 276.65519218 -0.3237494 C283.74164764 -0.33970879 290.82805683 -0.3443775 297.91452892 -0.34050413 C301.9921529 -0.33859831 306.0696195 -0.34134641 310.14721489 -0.35761642 C361.14566863 -0.55055392 404.94504303 11.35791163 442 48 C470.26535904 76.34242886 487.320485 116.26087326 487.2734375 156.32617188 C487.26924805 157.02411865 487.26505859 157.72206543 487.26074219 158.44116211 C487.24998947 160.56457937 487.26072989 162.68715441 487.2734375 164.81054688 C487.28180245 173.30970737 486.85509363 181.67014775 485 190 C483.03881632 191.96118368 480.0246134 191.12583938 477.4133572 191.13374341 C475.97734074 191.13039732 475.97734074 191.13039732 474.51231384 191.12698364 C473.50342135 191.12854363 472.49452887 191.13010362 471.45506388 191.13171089 C468.04546755 191.13572633 464.63591509 191.13252891 461.22631836 191.12939453 C458.79223606 191.13074853 456.35815397 191.13252845 453.92407227 191.13470459 C447.97581514 191.13880767 442.02757545 191.13818309 436.07931899 191.13529195 C431.2335328 191.13303451 426.38775014 191.1327269 421.54196358 191.13381577 C420.85241275 191.133969 420.16286192 191.13412223 419.4524156 191.13428011 C418.05134769 191.13459985 416.65027977 191.13492407 415.24921186 191.1352527 C402.08289236 191.13810983 388.91657979 191.13481937 375.75026143 191.12945233 C364.49829903 191.12500686 353.24634697 191.12574101 341.99438477 191.13037109 C328.91116321 191.13575227 315.8279478 191.13781116 302.74472529 191.13475883 C301.34174987 191.13444032 299.93877445 191.13412595 298.53579903 191.13381577 C297.50061963 191.13358435 297.50061963 191.13358435 296.44452752 191.13334826 C291.62672774 191.13249197 286.8089319 191.13392716 281.99113274 191.13629532 C275.46176746 191.13943413 268.93241687 191.13712089 262.40305328 191.13140106 C260.02493636 191.13009491 257.64681779 191.13043034 255.26870155 191.13266373 C213.27925511 191.16841265 213.27925511 191.16841265 195.5625 188.3125 C194.45108643 188.13879883 193.33967285 187.96509766 192.19458008 187.78613281 C140.66197584 179.37532378 93.96334714 157.13421006 57 120 C56.16082031 119.195625 55.32164063 118.39125 54.45703125 117.5625 C47.54851745 110.86828279 41.59302906 103.82183012 36 96 C35.5889502 95.42797852 35.17790039 94.85595703 34.75439453 94.26660156 C17.01916271 69.32232003 5.27446089 40.78628661 1.36328125 10.40234375 C1.2300647 9.39619019 1.09684814 8.39003662 0.95959473 7.35339355 C0.63570656 4.90276105 0.31591497 2.45167082 0 0 Z " fill="#FFFFFF" transform="translate(1192,0)"/>
<path d="M0 0 C151.14 0 302.28 0 458 0 C455.73942532 7.53524893 453.64396872 13.36516884 450.0625 20.125 C449.34223633 21.48806274 449.34223633 21.48806274 448.60742188 22.87866211 C441.25541908 36.4235146 431.65702056 47.94458615 421 59 C420.33742188 59.71414063 419.67484375 60.42828125 418.9921875 61.1640625 C399.49292446 81.64236804 371.8120201 95.0376806 344.625 101.75 C343.44224487 102.04813599 343.44224487 102.04813599 342.2355957 102.35229492 C327.77731523 105.71834306 313.03635447 106.29806696 298.25927734 106.22705078 C296.57191474 106.22648462 294.88455165 106.2268072 293.19718933 106.22793579 C288.67975951 106.22850233 284.16243904 106.21686315 279.64503431 106.20278788 C274.90053858 106.19016215 270.15603948 106.18910079 265.41152954 106.18673706 C256.45540707 106.1805567 247.49933426 106.16419324 238.54323351 106.14403808 C226.42087202 106.11735807 214.29849664 106.10667856 202.17611313 106.09503365 C183.11737165 106.07630958 164.05873492 106.03644118 145 106 C145 156.82 145 207.64 145 260 C97.15 260 49.3 260 0 260 C0 174.2 0 88.4 0 0 Z " fill="#FFFFFF" transform="translate(1212,215)"/>
</svg>
