<?xml version="1.0" encoding="UTF-8"?>
<svg version="1.1" xmlns="http://www.w3.org/2000/svg" width="3652" height="1185">
<path d="M0 0 C1.6140904 -0.00128164 1.6140904 -0.00128164 3.26078868 -0.00258917 C6.83043178 -0.00422315 10.40002683 0.001243 13.96966553 0.00672913 C16.54283141 0.00701147 19.11599737 0.00685233 21.68916321 0.00628662 C27.21053811 0.00576461 32.7319011 0.00887756 38.25327301 0.01452446 C46.23605416 0.02268337 54.2188296 0.02525916 62.20161447 0.02651245 C75.15603969 0.0286961 88.11045858 0.03533749 101.06488037 0.04481506 C113.64202849 0.054007 126.21917488 0.06107911 138.79632568 0.06532288 C139.57277885 0.0655856 140.34923201 0.06584832 141.14921406 0.06611901 C145.04480903 0.06742413 148.94040402 0.06868782 152.83599901 0.06993091 C185.10679609 0.08028211 217.3775854 0.09788165 249.64837646 0.12025452 C250.29760613 2.79313378 250.94148446 5.46712271 251.5824585 8.14198303 C251.76440262 8.88868507 251.94634674 9.63538712 252.13380432 10.40471649 C253.56622001 16.40984382 254.41006839 22.34979934 255.15130615 28.47914124 C255.99060444 34.62712483 257.39332814 40.63727257 258.77337646 46.68275452 C259.40429382 49.49582003 260.0301887 52.30999751 260.65618896 55.12416077 C260.81855042 55.85148407 260.98091187 56.57880737 261.14819336 57.32817078 C262.87933434 65.10555591 264.51354887 72.90275227 266.14306641 80.70195007 C268.67349266 92.8120218 271.2385819 104.91280803 273.89837646 116.99525452 C276.98462176 131.05060695 280.04995397 145.11047801 283.08624268 159.17671204 C283.62022344 161.64632293 284.15605852 164.11553374 284.69390869 166.58430481 C285.45985963 170.10171893 286.21885777 173.62057412 286.97650146 177.13978577 C287.20128174 178.16506882 287.42606201 179.19035187 287.65765381 180.2467041 C289.0016663 186.52957078 290.0871566 192.81752325 291.04998779 199.16712952 C292.60226882 209.31927367 294.70395599 219.31993499 296.89447021 229.35072327 C297.3066916 231.25727394 297.71843244 233.16392857 298.12973022 235.07067871 C298.99640383 239.08397387 299.86624191 243.0965637 300.73873901 247.1085968 C302.09975384 253.36758088 303.45267583 259.62829755 304.80438232 265.88929749 C307.76898939 279.61559869 310.74330735 293.33978966 313.72076416 307.06330872 C314.05113036 308.58603344 314.38149343 310.10875883 314.71185303 311.63148499 C314.8682812 312.35249043 315.02470938 313.07349588 315.1858778 313.81634998 C316.45019678 319.64546837 317.70963081 325.47563123 318.96725464 331.30619812 C319.68472572 334.62431417 320.40837577 337.94103801 321.13250732 341.25770569 C322.99370924 349.8446815 324.76081695 358.39797234 326.03509521 367.09291077 C328.00483243 380.41401003 331.05048004 393.54144216 333.91183853 406.69313431 C334.73833973 410.49766559 335.55875452 414.30350858 336.37957764 418.10926819 C337.40828093 422.87717677 338.43753075 427.64496451 339.46934509 432.41220093 C341.96138037 443.92640284 344.43708535 455.44402784 346.90228271 466.96400452 C347.07421772 467.76736425 347.24615273 468.57072399 347.42329788 469.39842796 C348.27239724 473.36599651 349.12128479 477.33361033 349.97003174 481.30125427 C351.40123714 487.99151002 352.83333384 494.68157446 354.2667675 501.37135315 C354.68408285 503.31941509 355.10099821 505.26756271 355.51789856 507.2157135 C355.77018723 508.39311096 356.02247589 509.57050842 356.28240967 510.78358459 C356.49919876 511.79600723 356.71598785 512.80842987 356.93934631 513.85153198 C357.32663677 515.63699208 357.71801474 517.42165769 358.12929821 519.20174408 C359.33679698 524.46523162 360.25426789 529.72007435 361.03973389 535.06117249 C362.48014205 544.47820363 364.35971455 553.7598442 366.38665771 563.06556702 C366.7484515 564.74529998 367.10978143 566.42513292 367.47068787 568.10505676 C368.23400945 571.65340542 369.00052366 575.20104221 369.76971436 578.74812317 C370.97771044 584.31904361 372.17773567 589.891664 373.37689209 595.4644928 C376.85778489 611.63187883 380.35866512 627.79491998 383.86936951 643.95585632 C385.00951198 649.20490372 386.14690655 654.45454565 387.28369236 659.70432091 C388.17727094 663.8289351 389.07572833 667.95244506 389.97828388 672.07510376 C390.66376031 675.21172921 391.34299316 678.34970851 392.02337646 681.48744202 C392.26215012 682.57031494 392.50092377 683.65318787 392.74693298 684.76887512 C393.91238571 690.17102742 394.8828376 695.54425843 395.62811279 701.02113342 C396.61248882 708.21032363 398.04947626 715.25247094 399.59759521 722.33900452 C399.89055 723.69732476 400.18305739 725.05574156 400.47515869 726.41424561 C401.0986552 729.30964873 401.72511463 732.20438764 402.35403442 735.09861755 C403.35253574 739.69374682 404.34435109 744.29030361 405.33514404 748.88710022 C406.54952165 754.51923605 407.76542717 760.15103762 408.98330212 765.78241825 C412.12998558 780.33382143 415.24977621 794.89096712 418.36692524 809.44872093 C419.63635448 815.37722116 420.90747659 821.30535715 422.17914486 827.23337746 C423.17555153 831.87926931 424.16910818 836.52576231 425.16156006 841.17250061 C426.06256608 845.39079825 426.97041904 849.6074332 427.88909912 853.82191467 C429.60129553 861.72504357 431.05432785 869.55823007 432.12005615 877.58021545 C433.18202905 884.69602278 434.76369823 891.71344331 436.27337646 898.74525452 C436.62833611 900.41545447 436.98306778 902.08570288 437.33758545 903.7559967 C439.88614368 915.72563454 442.53503139 927.67223988 445.21411133 939.61323547 C447.79515407 951.12444187 450.23177383 962.65875585 452.57388306 974.22080994 C454.6690469 984.55548 456.91779165 994.84685035 459.25128174 1005.13017273 C461.76063945 1016.19713257 464.10469416 1027.22244876 465.89837646 1038.43275452 C468.5637532 1054.96385066 472.29411533 1071.27068733 475.93255615 1087.60975647 C480.40247532 1107.74276024 484.50181006 1127.90574328 488.64837646 1148.12025452 C397.89837646 1148.12025452 307.14837646 1148.12025452 213.64837646 1148.12025452 C211.3230338 1138.81888387 209.01240596 1129.56872581 207.01123047 1120.20022583 C206.86458199 1119.5153264 206.7179335 1118.83042698 206.56684113 1118.12477303 C206.41585716 1117.41945379 206.2648732 1116.71413456 206.10931396 1115.98744202 C205.78352767 1114.475503 205.45749147 1112.96361782 205.13122559 1111.45178223 C204.26946667 1107.45561487 203.41079956 1103.45878991 202.55295563 1099.46178055 C201.12528993 1092.81239769 199.69296069 1086.16401619 198.26145554 1079.51545906 C197.9049469 1077.85935209 197.54856508 1076.20321781 197.19231033 1074.5470562 C194.96874175 1064.21025906 192.72537192 1053.87834228 190.44525146 1043.55384827 C189.98119958 1041.44659398 189.51716869 1039.33933507 189.05316162 1037.23207092 C188.42543573 1034.3825188 187.79588805 1031.53345364 187.15930176 1028.68586731 C185.05409632 1019.26772865 183.24785558 1009.97779349 182.0824585 1000.39198303 C181.49957298 995.99870476 180.57082498 991.73505232 179.52337646 987.43275452 C178.52119603 983.25700272 177.64837646 979.45035773 177.64837646 975.12025452 C52.57837646 975.12025452 -72.49162354 975.12025452 -201.35162354 975.12025452 C-202.01162354 978.09025452 -202.67162354 981.06025452 -203.35162354 984.12025452 C-204.96818831 991.33840419 -207.40596766 998.16632142 -209.91412354 1005.12025452 C-210.63764244 1007.14011248 -211.35975088 1009.16047187 -212.08190918 1011.18081665 C-212.61201533 1012.66343077 -213.14258899 1014.14587781 -213.67358398 1015.62817383 C-217.17475722 1025.4052978 -220.6329644 1035.19765852 -224.09646606 1044.98817444 C-225.56054455 1049.1266384 -227.02513554 1053.26492053 -228.49038696 1057.40296936 C-229.17605268 1059.33953428 -229.86138416 1061.27621757 -230.5463562 1063.21302795 C-231.99840728 1067.31587387 -233.45480661 1071.41679994 -234.93682861 1075.50892639 C-235.28785141 1076.48048927 -235.28785141 1076.48048927 -235.64596558 1077.47167969 C-236.24552908 1079.12763893 -236.84857106 1080.78233767 -237.45196533 1082.43690491 C-238.24150261 1084.79180429 -238.83177146 1087.05786922 -239.28912354 1089.49525452 C-240.25235483 1094.35600501 -242.05658874 1098.87621783 -243.82794189 1103.48524475 C-245.93603037 1108.97635831 -247.92043622 1114.50204984 -249.85162354 1120.05775452 C-250.14206543 1120.89129456 -250.43250732 1121.72483459 -250.73175049 1122.58363342 C-251.89966244 1125.9382534 -253.06477261 1129.29384306 -254.22955322 1132.64955139 C-255.05928199 1135.03654512 -255.89262702 1137.4222492 -256.72662354 1139.80775452 C-256.97734619 1140.53277161 -257.22806885 1141.2577887 -257.48638916 1142.004776 C-259.23806887 1147.00669985 -259.23806887 1147.00669985 -260.35162354 1148.12025452 C-262.00930019 1148.21744429 -263.67115042 1148.24397003 -265.33167362 1148.24330235 C-266.95966423 1148.24628892 -266.95966423 1148.24628892 -268.62054354 1148.24933583 C-269.82771562 1148.24642298 -271.0348877 1148.24351014 -272.27864075 1148.24050903 C-273.54947996 1148.24136346 -274.82031916 1148.24221788 -276.12966865 1148.2430982 C-279.67331001 1148.24534555 -283.21692143 1148.24131862 -286.76055896 1148.23632014 C-290.5758463 1148.23201924 -294.39113182 1148.2334618 -298.2064209 1148.23422241 C-304.82204657 1148.23474788 -311.4376624 1148.23159873 -318.0532856 1148.22598457 C-327.61847712 1148.21787262 -337.18366386 1148.21525467 -346.74885844 1148.21399658 C-362.26610771 1148.21180558 -377.78335173 1148.2051442 -393.30059814 1148.19569397 C-408.37807184 1148.18652109 -423.4555441 1148.17943965 -438.53302002 1148.17518616 C-439.92605937 1148.17479207 -439.92605937 1148.17479207 -441.34724093 1148.17439003 C-446.00601645 1148.17308503 -450.66479198 1148.17182131 -455.32356751 1148.17057812 C-493.99958986 1148.16020402 -532.67560635 1148.1425844 -571.35162354 1148.12025452 C-570.88001499 1146.68754531 -570.40685341 1145.25534727 -569.93304443 1143.82336426 C-569.66972069 1143.025754 -569.40639694 1142.22814375 -569.13509369 1141.40636349 C-568.14237697 1138.50968826 -566.98006035 1135.71241888 -565.75787354 1132.90541077 C-565.2847876 1131.80648499 -564.81170166 1130.7075592 -564.32427979 1129.57533264 C-563.34393554 1127.31690035 -562.36216847 1125.05908514 -561.37896729 1122.80189514 C-558.91710444 1117.0765547 -556.77545817 1111.4547084 -555.08111572 1105.45985413 C-553.82595844 1101.4343614 -552.01884934 1097.67966353 -550.22662354 1093.87025452 C-546.85048498 1086.5444868 -543.68053707 1079.16374266 -540.66412354 1071.68275452 C-537.90375822 1064.8486575 -535.02535833 1058.11743058 -531.88287354 1051.44837952 C-527.51534031 1041.95567974 -523.38634174 1032.31250338 -519.97662354 1022.43275452 C-515.14283221 1008.5048812 -509.21352692 994.90206734 -502.91021729 981.58119202 C-500.33512854 975.86307516 -498.02824048 970.03492732 -495.68096924 964.22035217 C-493.19583061 958.09326374 -490.57096507 952.09623212 -487.64068604 946.16712952 C-486.57114909 943.6391331 -485.80595382 941.28698017 -485.07037354 938.65541077 C-483.07133945 931.78860718 -480.11417711 925.33400157 -477.22662354 918.80775452 C-476.63897088 917.46738491 -476.05198323 916.12672357 -475.46563721 914.78578186 C-474.29977156 912.12042898 -473.13163595 909.45609279 -471.96148682 906.7926178 C-466.5099252 894.37190093 -461.224961 881.87794785 -455.97662354 869.37025452 C-455.55937012 868.38170471 -455.1421167 867.39315491 -454.71221924 866.37464905 C-452.96376482 862.18991729 -451.27819985 858.03182413 -449.89849854 853.71009827 C-447.98533722 847.78915985 -445.45365186 842.13518482 -442.97662354 836.43275452 C-442.45495605 835.22393616 -441.93328857 834.0151178 -441.39581299 832.76966858 C-440.00424663 829.54560326 -438.60803197 826.32357202 -437.21069336 823.102005 C-436.06348279 820.45555527 -434.91899746 817.80793105 -433.77456665 815.16027832 C-432.36370431 811.896525 -430.95148264 808.63336035 -429.53912354 805.37025452 C-429.26378784 804.73395111 -428.98845215 804.09764771 -428.70477295 803.44206238 C-423.66978414 791.81006088 -423.66978414 791.81006088 -421.08209229 786.02650452 C-420.76022949 785.30430725 -420.4383667 784.58210999 -420.10675049 783.83802795 C-419.3161114 782.07033003 -418.51793835 780.3060064 -417.71881104 778.54212952 C-416.62071178 775.79374396 -415.75389192 773.15927942 -414.94146729 770.32337952 C-413.39974303 765.03945199 -411.29955941 760.13126946 -409.03912354 755.12025452 C-403.84952557 743.42339496 -398.99036794 731.60145392 -394.17462158 719.74720764 C-391.45612966 713.07686039 -388.67201044 706.51899556 -385.35162354 700.12025452 C-383.27534872 695.37348481 -381.45849476 690.54509767 -379.85162354 685.62025452 C-377.57675965 678.66184732 -374.78445736 671.99018925 -371.66412354 665.37025452 C-368.85402738 659.36589716 -366.3369402 653.26547303 -363.85162354 647.12025452 C-361.01033973 640.0968365 -358.05670683 633.18712327 -354.82427979 626.33509827 C-353.01367648 622.38250803 -351.32615272 618.38718933 -349.66412354 614.37025452 C-349.37843506 613.68471497 -349.09274658 612.99917542 -348.79840088 612.29286194 C-347.41225635 608.91357638 -346.14473344 605.53918 -345.03912354 602.05775452 C-343.01613184 595.86977991 -340.43222893 589.9032999 -337.9006958 583.91078186 C-337.04742205 581.88990853 -336.20010839 579.86661609 -335.35357666 577.84291077 C-332.28904905 570.54381687 -329.0855219 563.33238596 -325.73809814 556.15736389 C-323.60946952 551.49454648 -321.69433902 546.75273741 -319.78912354 541.99525452 C-317.46181785 536.23008287 -315.12905517 530.49565333 -312.47662354 524.87025452 C-311.03239431 521.79299925 -309.92065884 518.82069817 -309.03131104 515.54212952 C-307.30635363 509.6623312 -304.87786048 504.19347802 -302.35162354 498.62025452 C-301.36178575 496.40350098 -300.37355369 494.18602987 -299.38677979 491.96791077 C-298.88291748 490.83627502 -298.37905518 489.70463928 -297.85992432 488.53871155 C-294.0302118 479.85893903 -290.37995015 471.10137254 -286.71002197 462.35316467 C-285.3386611 459.08940466 -283.95889393 455.82928856 -282.57818604 452.56947327 C-281.6898501 450.46153311 -280.80181736 448.35346516 -279.91412354 446.24525452 C-279.51314453 445.3015802 -279.11216553 444.35790588 -278.69903564 443.38563538 C-276.69923815 438.6152631 -274.90225083 433.84974523 -273.31646729 428.92494202 C-271.98460859 424.8298951 -270.45412532 421.12117585 -268.44537354 417.32337952 C-265.92188906 412.24036078 -263.954965 406.88720493 -261.85162354 401.62025452 C-256.56809848 388.38984708 -256.56809848 388.38984708 -253.39703369 382.27064514 C-250.92139485 377.17829883 -248.90527168 371.86921577 -246.78912354 366.62025452 C-246.30765869 365.43560608 -245.82619385 364.25095764 -245.33013916 363.03041077 C-242.51917302 356.103291 -242.51917302 356.103291 -239.85162354 349.12025452 C-237.67524617 343.23370153 -235.27685804 337.43378332 -232.91412354 331.62025452 C-232.43652588 330.43560608 -231.95892822 329.25095764 -231.46685791 328.03041077 C-227.50961149 318.29200187 -227.50961149 318.29200187 -225.33990479 314.10072327 C-221.90700239 307.46581942 -219.36110255 300.39981849 -216.59381104 293.46986389 C-214.24726178 287.63974362 -211.81437704 281.88873258 -209.14459229 276.19837952 C-207.10901922 271.84747358 -205.39757011 267.65858388 -204.03912354 263.05775452 C-201.89050932 256.21545209 -199.05758605 249.79009798 -196.06451416 243.28016663 C-192.43480153 235.37226221 -189.03760882 227.37706215 -185.6675415 219.35560608 C-183.16795271 213.41002464 -180.6496663 207.47371884 -178.08990479 201.55384827 C-177.81869308 200.9256015 -177.54748138 200.29735474 -177.26805115 199.65007019 C-175.95714303 196.61357818 -174.64305761 193.57859587 -173.32305908 190.54603577 C-170.3775299 183.73232986 -170.3775299 183.73232986 -167.89849854 176.74134827 C-165.76858956 170.06496101 -162.86103745 163.67944319 -160.10162354 157.24525452 C-159.485434 155.80088552 -158.8695549 154.35638406 -158.25396729 152.91175842 C-155.28571974 145.95203515 -152.30085005 138.99944661 -149.31408691 132.0476532 C-148.64216912 130.48373883 -147.9704157 128.91975383 -147.29882812 127.35569763 C-145.70306236 123.6394244 -144.10544362 119.92398152 -142.50299072 116.21058655 C-139.64731423 109.57813071 -136.86310202 102.93140099 -134.22271729 96.21009827 C-131.91297327 90.39324874 -129.38228076 84.81542827 -126.41412354 79.30775452 C-125.98373779 78.50080139 -125.55335205 77.69384827 -125.10992432 76.86244202 C-121.91555697 70.96221556 -118.40553648 65.46993872 -114.35162354 60.12025452 C-113.38095947 58.75513733 -113.38095947 58.75513733 -112.39068604 57.36244202 C-108.76359956 52.26228594 -104.99946113 47.4593489 -100.79693604 42.82337952 C-99.20769298 41.06647037 -99.20769298 41.06647037 -97.91412354 38.49525452 C-95.92677067 35.47447816 -93.55474229 33.85087396 -90.62506104 31.77259827 C-88.28619479 30.07270063 -86.11876821 28.24006408 -83.91412354 26.37025452 C-59.78310167 7.05063272 -30.46926852 -0.09050953 0 0 Z M39.64837646 314.12025452 C36.00088219 322.65316869 32.68584294 331.27210816 29.52337646 339.99525452 C29.04955531 341.29541269 28.57542749 342.59545914 28.10101318 343.895401 C27.11490759 346.59831951 26.13011039 349.3017088 25.14642334 352.00550842 C22.93064765 358.09419252 20.7046753 364.17913814 18.47607422 370.26313782 C17.79661921 372.11926041 17.1187106 373.97594886 16.44085693 375.83265686 C14.33822165 381.57794194 12.19189427 387.29764414 9.95306396 392.99134827 C8.39685956 397.00755504 7.1090874 400.90336918 6.16400146 405.09828186 C5.00404285 409.64694532 3.26088016 414.0292722 1.64837646 418.43275452 C1.25102295 419.52668518 0.85366943 420.62061584 0.4442749 421.74769592 C-4.90381077 436.43925106 -10.33949471 451.0992455 -15.8331604 465.73695374 C-16.99405493 468.83190894 -18.15164938 471.92809422 -19.309021 475.02436829 C-19.86785901 476.5166373 -20.42825846 478.00832275 -20.99041748 479.49934387 C-24.12020828 487.8012145 -27.04715804 496.11830547 -29.64627075 504.60232544 C-31.21165337 509.71184498 -32.92783357 514.73719824 -34.78912354 519.74525452 C-35.27566406 521.06940369 -35.27566406 521.06940369 -35.77203369 522.42030334 C-36.52222803 524.46009493 -37.27430763 526.49919378 -38.02789307 528.53773499 C-39.56596851 532.70035377 -41.0975795 536.86532826 -42.62896729 541.03041077 C-52.34574917 567.44579191 -52.34574917 567.44579191 -56.33599854 578.11244202 C-57.01106445 579.92095642 -57.01106445 579.92095642 -57.69976807 581.76600647 C-58.51520794 583.94804873 -59.33359692 586.12899267 -60.15582275 588.30848694 C-62.45641836 594.46888076 -64.47130847 600.67088558 -66.37310791 606.96522522 C-67.86042609 611.7607873 -69.56411332 616.46847841 -71.28912354 621.18275452 C-72.07311483 623.34155889 -72.85695945 625.50041653 -73.64068604 627.65931702 C-74.06768799 628.83268616 -74.49468994 630.0060553 -74.93463135 631.21498108 C-76.52951223 635.60408647 -78.10834876 639.99893008 -79.68756104 644.39369202 C-80.55875878 646.81569233 -81.43014613 649.23762435 -82.30160522 651.65953064 C-82.87067198 653.2418153 -83.43926542 654.82427027 -84.00735474 656.40690613 C-86.73665254 664.00743765 -89.47547349 671.58869548 -92.52227783 679.06922913 C-93.70644749 681.99775703 -94.7872123 684.95887582 -95.85162354 687.93275452 C-96.23318604 688.99107483 -96.61474854 690.04939514 -97.00787354 691.13978577 C-98.15173816 694.42994351 -99.14848634 697.75645981 -100.14849854 701.09291077 C-102.70197162 709.45829499 -105.79148032 717.60879926 -108.87164307 725.79066467 C-109.61383769 727.7662191 -110.35017431 729.74388284 -111.08599854 731.72181702 C-111.73906982 733.4593927 -111.73906982 733.4593927 -112.40533447 735.23207092 C-113.50730136 738.08885884 -113.50730136 738.08885884 -113.35162354 741.12025452 C-32.83162354 741.12025452 47.68837646 741.12025452 130.64837646 741.12025452 C130.00990714 735.3740306 129.35749005 730.26530547 128.09783936 724.71131897 C127.94484879 724.03023575 127.79185822 723.34915253 127.63423157 722.64743042 C127.30517414 721.18530098 126.97392322 719.72366371 126.64064217 718.26249123 C126.1102006 715.93602718 125.5860983 713.60821094 125.06352234 711.27996826 C123.76409035 705.49621495 122.45472696 699.71472132 121.14440918 693.9334259 C120.03599361 689.04179119 118.93208812 684.14918098 117.83410454 679.25519371 C117.32334413 676.98681588 116.8062074 674.71995745 116.28877258 672.45309448 C114.58156327 664.89427401 113.21127588 657.37267792 112.1865387 649.68685913 C111.14799576 642.80404239 109.56081829 636.03100022 108.04290771 629.24134827 C107.68246468 627.61059448 107.32251322 625.97973197 106.9630127 624.34877014 C106.19818815 620.8831885 105.43029247 617.41830824 104.65988159 613.95396423 C103.44653702 608.49704767 102.24090686 603.03844534 101.0368042 597.57948303 C99.79974016 591.97230736 98.56247633 586.36517738 97.32295227 580.75854492 C93.58318742 563.84224259 89.86762798 546.9207487 86.17849731 529.99333191 C85.54039554 527.06622669 84.90041973 524.13954179 84.25863647 521.21324158 C78.63401514 495.563491 78.63401514 495.563491 77.06634521 486.23353577 C75.23500124 475.36430219 72.77621414 464.63061433 70.39837646 453.87025452 C69.60631729 450.26748861 68.81551056 446.6644491 68.0247345 443.06140137 C67.46339708 440.50415419 66.90165191 437.94699648 66.33952332 435.3899231 C64.10982289 425.24495349 61.90102247 415.09551739 59.69915771 404.94447327 C59.36388548 403.39925551 59.0286092 401.85403863 58.69332886 400.30882263 C57.37885827 394.25006499 56.0646926 388.19124154 54.75201416 382.13209534 C53.83449962 377.89743055 52.91562593 373.6630621 51.99603271 369.42884827 C51.77784913 368.42340218 51.77784913 368.42340218 51.5552578 367.39764404 C49.49655784 357.9169289 47.39090163 348.4482487 45.17073059 339.00390625 C43.76922849 332.9622469 42.79161247 326.9682441 42.10540771 320.79994202 C41.65803373 318.17687746 40.88181426 316.44701603 39.64837646 314.12025452 Z " fill="#FFFFFF" transform="translate(3163.3516235351563,17.879745483398438)"/>
<path d="M0 0 C48.00053081 -0.0342536 96.00106253 -0.06609263 144.00160217 -0.08468628 C145.06807251 -0.08510045 145.06807251 -0.08510045 146.15608771 -0.08552299 C161.60943104 -0.09150949 177.06277451 -0.09704976 192.51611817 -0.10213066 C200.09497399 -0.10462522 207.67382978 -0.10721835 215.25268555 -0.10986328 C216.3839368 -0.11025556 216.3839368 -0.11025556 217.5380416 -0.11065576 C241.96113588 -0.11917097 266.38422088 -0.13418799 290.80730954 -0.15259444 C315.91550973 -0.17148276 341.02370479 -0.18377625 366.13191197 -0.18782998 C369.68227179 -0.18840625 373.2326316 -0.18905752 376.78299141 -0.18975449 C377.83108334 -0.18995676 377.83108334 -0.18995676 378.90034884 -0.19016311 C390.12566381 -0.19252202 401.35096285 -0.2017859 412.57627133 -0.21366407 C423.87498214 -0.22547138 435.17367249 -0.22976642 446.47239094 -0.22700275 C452.58879507 -0.22572382 458.70515265 -0.22766237 464.82154846 -0.23841095 C470.42986091 -0.24819432 476.03809583 -0.24860207 481.64641196 -0.24179779 C483.66689104 -0.2409577 485.6873751 -0.24345142 487.70784449 -0.24976636 C503.31523415 -0.29567928 518.542533 0.49927083 533.75 4.3125 C534.63993652 4.53268799 535.52987305 4.75287598 536.44677734 4.97973633 C571.19521144 13.8326595 600.86230177 35.81473967 619.44921875 66.37890625 C619.96097656 67.24386719 620.47273437 68.10882813 621 69 C621.78310547 70.25103516 621.78310547 70.25103516 622.58203125 71.52734375 C626.91339484 78.81938625 629.16504425 86.40342803 631.3190918 94.53857422 C631.79478897 96.25817941 632.30718443 97.9678656 632.84692383 99.66845703 C636.64527665 111.94777279 638.72123855 124.59988269 641.0602417 137.21939468 C642.10010829 142.81651109 643.15609284 148.41062799 644.21052933 154.00501442 C644.48521506 155.46258024 644.75966563 156.9201904 645.03388596 158.37784386 C647.13987427 169.56764604 649.31361986 180.74274635 651.53515625 191.91015625 C651.82881241 193.38835637 652.12246781 194.86655665 652.41612244 196.34475708 C653.54825162 202.03920738 654.68142689 207.73343137 655.82711792 213.4251709 C658.43544287 226.38637128 660.98234765 239.32839809 662.890625 252.4140625 C665.3931007 269.47802848 668.85319228 286.36316031 672.19974899 303.27714157 C673.13566223 308.01471366 674.06455089 312.75366338 674.99438477 317.49243164 C678.64941602 336.10531876 682.33679701 354.71172637 686.04143143 373.31479836 C686.60087125 376.12534037 687.15963149 378.93601652 687.71810913 381.74674988 C687.89935774 382.65891927 688.08060635 383.57108866 688.26734734 384.51089954 C688.62829705 386.32757138 688.98920472 388.14425156 689.35006905 389.96094036 C690.39245217 395.20565788 691.44055333 400.44919071 692.49324322 405.69184875 C693.1473337 408.95495055 693.79675823 412.21896946 694.44509315 415.48321915 C694.74231195 416.97442979 695.04146927 418.46525583 695.34288597 419.95562363 C696.97104167 428.01040835 698.31796695 436.0394766 699.27282333 444.20235062 C700.03897811 450.63563973 701.22488962 456.94662455 702.51171875 463.29296875 C702.88828219 465.18844404 703.26484311 467.08391984 703.64131641 468.97941303 C704.04222427 470.99248013 704.4458669 473.00498074 704.8503418 475.01733398 C705.70758097 479.28317026 706.55676448 483.55058524 707.40429688 487.81835938 C707.54999681 488.55195238 707.69569675 489.28554539 707.84581184 490.04136848 C708.14502483 491.54795124 708.44421447 493.05453864 708.7433815 494.56113052 C709.20338919 496.87645956 709.66411159 499.19164548 710.12496948 501.50680542 C713.63770504 519.16222616 717.07689911 536.83193074 720.51401138 554.50220108 C721.30386133 558.5617331 722.09476732 562.62105939 722.88549805 566.68041992 C724.19684454 573.4126971 725.50428951 580.14572333 726.80970287 586.87915325 C727.69056239 591.41844486 728.58137732 595.95569427 729.4765625 600.4921875 C729.92190321 602.76561947 730.36721752 605.03905662 730.8125 607.3125 C731.00739014 608.28888428 731.20228027 609.26526855 731.40307617 610.27124023 C732.43753115 615.57846385 733.26560793 620.87130888 733.94580078 626.23608398 C734.9748079 634.20013483 736.46927258 642.04323305 738.0546875 649.91015625 C738.35612299 651.4245838 738.65709976 652.93910271 738.95765686 654.45370483 C739.59527784 657.66291721 740.23559947 660.87157316 740.87814331 664.07980347 C741.88718197 669.11926302 742.88889306 674.16016059 743.88891602 679.20141602 C744.05686456 680.04797351 744.2248131 680.894531 744.39785099 681.76674175 C744.7386917 683.48484379 745.079511 685.20295007 745.42030907 686.92106056 C745.93477273 689.51375409 746.44977281 692.10634053 746.96492004 694.69889832 C750.05527 710.25454648 753.11980156 725.81511106 756.14776611 741.38302612 C756.67186073 744.0766361 757.19842723 746.76974405 757.72723389 749.46243286 C758.4567238 753.18113508 759.18034126 756.90093167 759.90234375 760.62109375 C760.11721939 761.71022064 760.33209503 762.79934753 760.55348206 763.92147827 C760.7458696 764.91990753 760.93825714 765.91833679 761.13647461 766.94702148 C761.30441025 767.8081102 761.47234589 768.66919891 761.64537048 769.55638123 C762.01044933 772.0720024 762.06272013 774.46170541 762 777 C762.66 777 763.32 777 764 777 C764.18175781 776.39414062 764.36351562 775.78828125 764.55078125 775.1640625 C765.3671875 772.44270833 766.18359375 769.72135417 767 767 C767.17813232 766.3412085 767.35626465 765.68241699 767.53979492 765.00366211 C769.91695496 756.51738893 773.3453392 748.45094319 776.6875 740.3125 C777.346455 738.69703257 778.00497511 737.08138769 778.66308594 735.46557617 C781.86532092 727.6124761 785.09215739 719.76961181 788.33259583 711.9322052 C789.78852224 708.41032869 791.2416046 704.88728052 792.69497681 701.36434937 C793.72843184 698.86466823 794.76768042 696.36745318 795.80737305 693.87036133 C798.57024879 687.20231619 801.22592156 680.64820503 803.15820312 673.68530273 C805.2996517 666.8541563 808.18986523 660.25640593 810.875 653.625 C811.49387345 652.08609182 812.11236543 650.54703017 812.73046875 649.0078125 C816.09324902 640.64638803 819.50960843 632.30907506 823 624 C831.99204521 603.47532543 831.99204521 603.47532543 839.33984375 582.34765625 C841.02840522 576.65240157 843.28488533 571.26613022 845.625 565.8125 C849.53642021 556.57710203 853.286628 547.29555987 856.86767578 537.92700195 C858.62221179 533.37296734 860.47137103 528.90114748 862.515625 524.46875 C864.88580891 519.3269104 866.95739031 514.11496167 868.9375 508.8125 C869.45497803 507.44206543 869.45497803 507.44206543 869.98291016 506.04394531 C871.49970255 502.02215797 873.00359905 497.99570623 874.49609375 493.96484375 C877.80098982 485.06128522 881.27920115 476.23695483 884.82446289 467.42626953 C887.36418724 461.1087582 889.87720585 454.78169866 892.359375 448.44140625 C892.78904823 447.34509636 892.78904823 447.34509636 893.22740173 446.22663879 C894.93574294 441.86721501 894.93574294 441.86721501 896.63796997 437.50540161 C899.15527502 431.04210223 901.66584925 424.60865471 904.63671875 418.3359375 C906.37024314 414.61162505 907.68122835 410.94805122 908.828125 407.00390625 C911.46587485 398.05062208 915.1591919 389.54001565 918.75 380.9375 C919.8379045 378.31229797 920.92371463 375.6862356 922.00952148 373.06016541 C922.71667371 371.35045689 923.42450851 369.64103052 924.13305664 367.93190002 C927.53701265 359.7197132 930.84533183 351.47142614 934.12011719 343.20703125 C935.08358302 340.79034669 936.06035034 338.3792988 937.0390625 335.96875 C937.38775391 335.10660889 937.73644531 334.24446777 938.09570312 333.35620117 C938.73995965 331.76405014 939.38669673 330.17289807 940.03710938 328.58325195 C941.78479173 324.25116083 943.39392576 319.89057854 944.91323853 315.4728241 C948.68161808 304.54797548 953.02685517 293.8817664 957.43093872 283.19998169 C958.77247646 279.94547316 960.10858444 276.68878403 961.44311523 273.43139648 C963.18535052 269.17887956 964.92871749 264.92683113 966.67333984 260.67529297 C969.48839958 253.81181575 972.29044992 246.94347537 975.0625 240.0625 C975.62372559 238.68481445 975.62372559 238.68481445 976.19628906 237.27929688 C978.16500389 232.37530505 979.78168513 227.46487298 981.25561523 222.3918457 C982.41465959 218.66762218 983.93950833 215.13310975 985.5 211.5625 C986.21626334 209.88993013 986.93102019 208.21671458 987.64453125 206.54296875 C988.02561035 205.65013184 988.40668945 204.75729492 988.79931641 203.83740234 C995.0832506 188.98748709 1001.03814776 173.99452674 1006.97085571 159.00128174 C1007.51966997 157.61478896 1008.06941019 156.22866224 1008.62020874 154.84295654 C1011.55204891 147.46055009 1014.35908175 140.0562951 1016.9609375 132.55078125 C1019.93194585 124.00279747 1023.32357234 115.65992923 1026.8125 107.3125 C1027.43082759 105.82336378 1028.04865955 104.33402167 1028.66601562 102.84448242 C1029.88317008 99.9086081 1031.10214908 96.9735039 1032.32275391 94.0390625 C1035.6104812 86.12934304 1038.84658513 78.19844747 1042.07568359 70.26464844 C1042.95764263 68.10377891 1043.84724463 65.94620118 1044.73828125 63.7890625 C1047.02603915 58.21208952 1049.15317072 52.67524476 1050.8125 46.875 C1052.82496505 40.04100409 1055.64078541 33.63010582 1058.4934082 27.11572266 C1061.47853694 20.2849986 1064.24495653 13.39392778 1066.88012695 6.42114258 C1068.90409772 1.09590228 1068.90409772 1.09590228 1070 0 C1071.65767665 -0.09718977 1073.31952689 -0.12371551 1074.98005009 -0.12304783 C1076.6080407 -0.1260344 1076.6080407 -0.1260344 1078.26892 -0.12908131 C1080.07967812 -0.12471205 1080.07967812 -0.12471205 1081.92701721 -0.12025452 C1083.19785642 -0.12110894 1084.46869563 -0.12196337 1085.77804512 -0.12284368 C1089.32168647 -0.12509103 1092.86529789 -0.1210641 1096.40893543 -0.11606562 C1100.22422277 -0.11176473 1104.03950829 -0.11320729 1107.85479736 -0.1139679 C1114.47042303 -0.11449336 1121.08603887 -0.11134421 1127.70166206 -0.10573006 C1137.26685358 -0.0976181 1146.83204032 -0.09500015 1156.39723491 -0.09374207 C1171.91448417 -0.09155107 1187.43172819 -0.08488968 1202.94897461 -0.07543945 C1218.0264483 -0.06626657 1233.10392057 -0.05918513 1248.18139648 -0.05493164 C1249.57443584 -0.05453756 1249.57443584 -0.05453756 1250.9956174 -0.05413551 C1255.65439291 -0.05283051 1260.31316844 -0.05156679 1264.97194397 -0.05032361 C1303.64796632 -0.0399495 1342.32398282 -0.02232988 1381 0 C1380.52521663 1.4384293 1380.04921781 2.87645745 1379.57270813 4.3143158 C1379.30776708 5.11516067 1379.04282602 5.91600554 1378.76985645 6.74111843 C1377.86364082 9.40009959 1376.83178233 11.98241494 1375.73046875 14.56640625 C1375.31974121 15.53811768 1374.90901367 16.5098291 1374.48583984 17.51098633 C1374.0573877 18.51798584 1373.62893555 19.52498535 1373.1875 20.5625 C1370.29001466 27.43605464 1367.43361906 34.30509451 1364.875 41.3125 C1360.78861009 52.46617997 1356.18426255 63.44014001 1351.125 74.1875 C1347.73327221 81.40769861 1344.72155478 88.78356728 1341.68994141 96.16088867 C1339.68212459 101.03158498 1337.61912578 105.84844484 1335.37890625 110.6171875 C1333.43761174 114.82784024 1332.06037873 118.98625737 1330.80517578 123.44042969 C1329.26478602 128.33716901 1327.0556783 132.95648313 1324.9375 137.625 C1321.06300537 146.2851014 1317.30267155 154.97842298 1313.6875 163.75 C1310.70466261 170.97532678 1307.63048525 178.11703985 1304.3046875 185.19140625 C1301.31252739 191.63261319 1298.46361416 198.08464665 1296.5625 204.9375 C1295.14562178 209.90831585 1293.02377599 214.3878932 1290.8046875 219.046875 C1288.51688351 223.95337441 1286.52606893 228.98129713 1284.5 234 C1282.15038802 239.80537875 1279.80229022 245.58590624 1277.125 251.25 C1270.46651437 265.36897373 1264.29222896 279.81553788 1259.234375 294.5859375 C1255.7025252 304.35440814 1251.48864262 313.91924176 1247.0625 323.3125 C1243.88618495 330.07190615 1241.12015276 336.98649332 1238.32543945 343.90966797 C1236.26369158 348.99313097 1234.12207779 353.99159553 1231.75 358.9375 C1229.42726614 363.83612671 1227.72489357 368.77314069 1226.09570312 373.93896484 C1224.0538184 380.20527515 1221.34016189 386.11398821 1218.58325195 392.09277344 C1215.67045586 398.43334173 1212.97953954 404.83966663 1210.375 411.3125 C1207.85702415 417.55708011 1205.27722102 423.73623137 1202.375 429.8125 C1199.8515196 435.11180884 1197.49127357 440.45016676 1195.25 445.875 C1194.96817871 446.55280518 1194.68635742 447.23061035 1194.39599609 447.92895508 C1193.02943758 451.27192434 1191.78484089 454.6125278 1190.69140625 458.0546875 C1188.66606604 464.24492405 1186.0817348 470.21428116 1183.54907227 476.20947266 C1182.69579852 478.23034598 1181.84848486 480.25363843 1181.00195312 482.27734375 C1177.93915862 489.57227533 1174.73674788 496.77894201 1171.39086914 503.94970703 C1169.23517601 508.67732332 1167.30080551 513.48766941 1165.375 518.3125 C1163.06064269 524.11053152 1160.66882121 529.76684693 1157.81738281 535.3215332 C1156.8449863 537.31831518 1156.22089927 539.28354417 1155.6875 541.4375 C1154.31106286 546.31553273 1152.49087565 550.9449943 1150.5625 555.625 C1150.2739917 556.32939209 1149.9854834 557.03378418 1149.68823242 557.75952148 C1148.28122371 561.13579077 1146.80345818 564.43151573 1145.12109375 567.6796875 C1142.18741943 573.44794944 1139.89802621 579.49513328 1137.5 585.5 C1132.08752251 599.05331557 1132.08752251 599.05331557 1128.92041016 605.16650391 C1127.24158206 608.51080073 1125.85004381 611.97438697 1124.4375 615.4375 C1124.14681641 616.13681641 1123.85613281 616.83613281 1123.55664062 617.55664062 C1122.10855008 621.08453907 1120.7803521 624.60877127 1119.62109375 628.2421875 C1117.66830762 634.21477395 1115.12644234 639.92833698 1112.625 645.6875 C1112.10405762 646.89559326 1111.58311523 648.10368652 1111.04638672 649.34838867 C1108.50859471 655.23204932 1105.95383386 661.10833668 1103.39785767 666.9841156 C1102.5334997 668.97139015 1101.66979905 670.95894947 1100.80615234 672.9465332 C1099.72096698 675.4438163 1098.63227875 677.93946882 1097.54150391 680.43432617 C1093.02003778 690.81959116 1088.71976586 701.28607497 1084.79199219 711.91113281 C1082.82456286 717.10019733 1080.7111724 722.23286696 1078.625 727.375 C1078.15578125 728.54289063 1077.6865625 729.71078125 1077.203125 730.9140625 C1074.76437055 736.92336904 1072.18015189 742.76047551 1069.21923828 748.52880859 C1066.95147535 753.12518352 1065.06150541 757.88195945 1063.125 762.625 C1060.19292498 769.75115282 1057.21453589 776.84340286 1054.0625 783.875 C1051.93543641 788.6392158 1050.20484079 793.3523314 1048.84155273 798.3894043 C1047.901195 801.30650475 1046.67856922 803.95383512 1045.35546875 806.71875 C1041.22899738 815.54062588 1037.61323764 824.56122782 1033.95361328 833.58422852 C1033.05237638 835.80330278 1032.1473767 838.02081687 1031.2421875 840.23828125 C1030.97542206 840.89991776 1030.70865662 841.56155426 1030.43380737 842.24324036 C1028.765121 846.3290685 1026.90416388 850.26981297 1024.90386963 854.2035675 C1023.06127862 857.86570002 1021.5206173 861.6581506 1019.9375 865.4375 C1019.59912109 866.23220703 1019.26074219 867.02691406 1018.91210938 867.84570312 C1017.33984987 871.5832407 1015.86909577 875.30177906 1014.64453125 879.16796875 C1012.45476856 885.90710802 1009.54100688 892.36886023 1006.75 898.875 C1006.13604621 900.3127935 1005.5223634 901.75070274 1004.90893555 903.1887207 C1003.61572767 906.21835969 1002.32019348 909.24698955 1001.02294922 912.27490234 C999.30605205 916.28301124 997.59471124 920.29346569 995.88510132 924.3046875 C994.52505755 927.49501932 993.16313 930.68454435 991.80065918 933.87384033 C991.14614196 935.40631619 990.49208309 936.93898789 989.83850098 938.47186279 C988.9215329 940.62136357 988.00211531 942.76980024 987.08203125 944.91796875 C986.81383072 945.54786209 986.54563019 946.17775543 986.26930237 946.82673645 C985.05713267 949.65049605 983.79057231 952.41117551 982.39550781 955.15014648 C981.15691431 957.67955551 980.31718839 959.97121378 979.58984375 962.6796875 C977.96394277 968.33067189 975.81643583 973.69899756 973.5625 979.125 C973.18029297 980.06214844 972.79808594 980.99929688 972.40429688 981.96484375 C970.73537413 986.01672749 969.03860358 990.01732398 967.0390625 993.91796875 C964.32980288 999.20916687 962.10311718 1004.70557034 959.8125 1010.1875 C958.84044745 1012.50415965 957.86778225 1014.82056232 956.89453125 1017.13671875 C956.41064941 1018.28833496 955.92676758 1019.43995117 955.42822266 1020.62646484 C954.09917649 1023.76574005 952.74946628 1026.89476318 951.38671875 1030.01953125 C950.78089966 1031.412323 950.78089966 1031.412323 950.1628418 1032.83325195 C949.41486663 1034.5485853 948.66275725 1036.26212498 947.90551758 1037.97338867 C946.18922 1041.92115773 944.7152153 1045.8059716 943.5390625 1049.94921875 C941.9898519 1055.32766926 939.75785322 1060.25831143 937.375 1065.3125 C936.4708948 1067.2674155 935.56859036 1069.22316468 934.66796875 1071.1796875 C934.21728027 1072.15776367 933.7665918 1073.13583984 933.30224609 1074.14355469 C929.70874154 1082.02582001 926.37089957 1090.02078202 923 1098 C922.47963465 1099.22759946 921.95911872 1100.4551351 921.43847656 1101.68261719 C912.84260264 1121.83009849 912.84260264 1121.83009849 905.05078125 1142.296875 C904 1145 904 1145 902 1148 C899.75104988 1148.37259549 899.75104988 1148.37259549 896.88128471 1148.36914349 C895.24508244 1148.3781032 895.24508244 1148.3781032 893.57582557 1148.38724393 C891.76360029 1148.37413614 891.76360029 1148.37413614 889.9147644 1148.36076355 C888.63898722 1148.36332682 887.36321003 1148.3658901 886.04877293 1148.36853105 C882.49589936 1148.37526476 878.94329518 1148.36320409 875.39045596 1148.34819686 C871.56359769 1148.33528207 867.73675551 1148.33962272 863.90988159 1148.34190369 C857.27568822 1148.34347932 850.64158312 1148.33403993 844.00741196 1148.31719017 C834.41544282 1148.29284388 824.82351652 1148.28499939 815.23151983 1148.2812262 C799.67043561 1148.27465483 784.10939848 1148.25467513 768.54833984 1148.22631836 C753.42920162 1148.19879549 738.31007617 1148.17755325 723.19091797 1148.16479492 C722.2595008 1148.16400675 721.32808362 1148.16321858 720.36844169 1148.16240653 C715.6959528 1148.15849151 711.02346383 1148.15470036 706.3509748 1148.15097082 C667.56728356 1148.11985359 628.78364488 1148.06699919 590 1148 C588.92124778 1144.09894558 587.8431874 1140.19770064 586.76570892 1136.29629421 C586.40072591 1134.97509143 586.03556892 1133.65393669 585.67021942 1132.3328352 C582.19479641 1119.7648959 578.82748391 1107.17026274 575.5 1094.5625 C574.93775862 1092.43696483 574.3753374 1090.31147722 573.81274414 1088.18603516 C572.97746817 1085.0303975 572.14226797 1081.87474022 571.30763245 1078.71893311 C569.02837629 1070.10139995 566.73664357 1061.48724604 564.4375 1052.875 C564.13972656 1051.75939697 563.84195313 1050.64379395 563.53515625 1049.49438477 C563.11363281 1047.91548462 563.11363281 1047.91548462 562.68359375 1046.3046875 C562.41144043 1045.28084961 562.13928711 1044.25701172 561.85888672 1043.20214844 C561.24999948 1040.93206172 560.63078287 1038.66473413 560.00439453 1036.39941406 C558.3347794 1030.30409408 556.80670596 1024.24698414 555.63671875 1018.03515625 C553.57796804 1007.36708438 550.63539019 996.92371793 547.8125 986.4375 C547.22173173 984.22928333 546.63140372 982.02094883 546.04150391 979.8125 C544.88278024 975.47705213 543.72166819 971.14225709 542.55810547 966.80810547 C541.28425469 962.06240004 540.01600289 957.31524991 538.75390625 952.56640625 C538.43534668 951.36838379 538.11678711 950.17036133 537.78857422 948.93603516 C537.48709473 947.80214355 537.18561523 946.66825195 536.875 945.5 C534.90850572 938.10788968 532.92656485 930.72033021 530.92041016 923.33889771 C529.92046747 919.65775623 528.92419892 915.97562386 527.92803955 912.29345703 C527.44334695 910.50601074 526.95688441 908.71904321 526.46844482 906.93261719 C523.88663076 897.48880822 521.52895673 888.10299745 519.69555664 878.48266602 C518.56561403 872.82502078 517.10117649 867.2630585 515.625 861.6875 C515.3465625 860.61822266 515.068125 859.54894531 514.78125 858.44726562 C513.16771669 852.2874932 511.48908634 846.14762217 509.7734375 840.015625 C506.24644471 827.39363873 502.90115912 814.72236976 499.53112793 802.05780029 C498.64921171 798.74468571 497.76589989 795.43194319 496.8828125 792.11914062 C495.21319585 785.85501773 493.54806509 779.58970906 491.88427734 773.32403564 C491.07865082 770.29565174 490.26864951 767.26848159 489.45703125 764.24169922 C489.01293403 762.57652054 488.56891643 760.91132063 488.125 759.24609375 C487.93397705 758.539048 487.7429541 757.83200226 487.54614258 757.10353088 C486.5997087 753.53881773 485.7841263 749.98100196 485.08959961 746.35839844 C483.81666252 739.84179183 482.11947727 733.44158637 480.44140625 727.01953125 C480.08786363 725.65904172 479.73447902 724.29851112 479.38124084 722.9379425 C475.47179299 707.90143 471.49669433 692.88208501 467.5145874 677.86468506 C466.74243097 674.95156058 465.97140798 672.03813663 465.2003994 669.12470818 C464.43583033 666.23601929 463.67068837 663.34748237 462.90538406 660.45898819 C462.5300189 659.04208109 462.15479132 657.62513754 461.77970505 656.20815659 C459.86158154 648.96364441 457.93061162 641.72335451 455.95361328 634.49462891 C455.63413223 633.32309769 455.31465118 632.15156647 454.98548889 630.9445343 C454.39767218 628.79398178 453.80610447 626.64444878 453.20970154 624.4962616 C451.9589703 619.91768291 450.84728732 615.38707544 450.04907227 610.70703125 C448.84374554 603.73103758 446.98059121 596.93787503 445.1484375 590.10546875 C444.76652521 588.66858112 444.3849931 587.23159238 444.0038147 585.79450989 C443.00129633 582.01903056 441.99364862 578.24493929 440.98486328 574.47113037 C439.98809689 570.738743 438.99620304 567.00506201 438.00390625 563.27148438 C436.24643885 556.66177055 434.48450733 550.05325768 432.72020626 543.44536495 C431.3993965 538.49805578 430.08099061 533.5501114 428.76391602 528.60180664 C428.22944035 526.5945364 427.69491766 524.58727868 427.16037369 522.58002663 C426.67418674 520.75391688 426.18838735 518.92770395 425.7026062 517.10148621 C423.28009454 508.00932826 420.80853823 498.93102203 418.30325317 489.86132812 C416.86122504 484.61948378 415.65703734 479.38724281 414.63671875 474.046875 C412.74201501 464.31287331 410.16893862 454.76846721 407.625 445.1875 C407.15066503 443.38486469 406.67670521 441.58213062 406.203125 439.77929688 C404.07342731 431.69217427 401.9091565 423.61620004 399.65625 415.5625 C396.33186891 403.67644188 393.14178266 391.75394048 389.95166016 379.83129883 C389.23290736 377.14602205 388.51142953 374.46149994 387.78759766 371.77758789 C386.7253702 367.83884419 385.67104257 363.89802348 384.6171875 359.95703125 C384.29837616 358.77849075 383.97956482 357.59995026 383.65109253 356.38569641 C381.70344893 349.06833689 380.09983781 341.74690954 378.65707397 334.31840515 C377.92987176 330.64583301 377.07673978 327.05560429 376.1171875 323.4375 C375.86006485 322.4612542 375.86006485 322.4612542 375.5977478 321.46528625 C375.02822988 319.30890442 374.45188975 317.15442044 373.875 315 C373.45389692 313.4156631 373.03300726 311.83126947 372.61230469 310.24682617 C371.37672341 305.60178565 370.13305746 300.95893547 368.88830566 296.31634521 C367.91280725 292.67448001 366.94012548 289.03186626 365.96777344 285.38916016 C364.1100083 278.43077658 362.24592884 271.47410085 360.378479 264.51831055 C359.63353894 261.74333831 358.89024466 258.96793367 358.14837646 256.19213867 C354.42968401 242.28507475 350.67700846 228.41145703 346.19946289 214.7253418 C345.10787334 211.33503752 344.1241517 207.93572179 343.1875 204.5 C340.69123846 196.2431349 336.70228777 188.5839515 332.8762207 180.87841797 C332 179 332 179 331 176 C330.34 176 329.68 176 329 176 C327.74966403 174.42283761 326.57557958 172.78498678 325.4375 171.125 C315.03065932 156.44189388 302.39775913 144.20387657 286.01171875 136.50390625 C282.96468028 134.98236304 280.21983783 133.24468424 277.375 131.375 C266.85870356 124.78024816 255.32123386 120.02775293 244 115 C242.97487305 114.54318848 241.94974609 114.08637695 240.89355469 113.61572266 C238.05862836 112.35798681 235.21867247 111.1128188 232.375 109.875 C231.54162109 109.50898682 230.70824219 109.14297363 229.84960938 108.76586914 C225.69884421 106.98703039 221.74193161 105.65839574 217.328125 104.64453125 C212.36025416 103.26919788 207.59895509 101.24171662 202.80941772 99.35031128 C200.76215641 98.54263877 198.71221105 97.74215759 196.66137695 96.94360352 C191.80499491 95.0522612 186.95050838 93.15607815 182.09802246 91.25476074 C167.25366131 85.43963801 152.34785097 79.98784865 137.1875 75.0625 C136.49119476 74.83488983 135.79488953 74.60727966 135.07748413 74.37277222 C127.10066532 71.77528591 119.11074141 69.45090448 110.95831299 67.4705658 C104.40313602 65.87597795 97.92225248 64.05061053 91.43670654 62.19580078 C71.31561681 56.45095477 51.10639059 51.21672389 30.75 46.375 C29.96010681 46.18663574 29.17021362 45.99827148 28.35638428 45.80419922 C16.60964517 43.00868137 4.82581139 40.43880528 -7 38 C-6.16795287 32.90898045 -5.33168164 27.81867992 -4.49145508 22.72900391 C-4.20610653 20.99677417 -3.92192161 19.26435234 -3.63891602 17.53173828 C-3.23237606 15.04408396 -2.82168236 12.55714619 -2.41015625 10.0703125 C-2.28407486 9.29317902 -2.15799347 8.51604553 -2.02809143 7.71536255 C-1.11387171 2.22774341 -1.11387171 2.22774341 0 0 Z " fill="#FFFFFF" transform="translate(7,18)"/>
<path d="M0 0 C47.79377867 -0.92206647 95.61243006 3.31878738 142.75923157 10.91732788 C147.37398515 11.66087511 151.99135128 12.37285906 156.61680603 13.04658508 C202.42080903 19.74247303 252.075006 30.73800401 293.95898438 51.06640625 C295.62243415 54.3933058 294.0738113 57.84241799 293.26831055 61.33300781 C293.07659775 62.18863312 292.88488495 63.04425842 292.68736267 63.92581177 C292.26861271 65.79042675 291.8466565 67.65432383 291.4219265 69.51758575 C290.74729914 72.47745016 290.08099604 75.43907933 289.41682434 78.40130615 C288.0010536 84.70808212 286.57408932 91.01230046 285.14648438 97.31640625 C283.50221516 104.58283116 281.86261827 111.85027345 280.23131752 119.11962128 C279.57901147 122.01735876 278.91999522 124.91351299 278.26054382 127.80963135 C276.32984078 136.35795214 274.63424428 144.80487246 273.50190735 153.50164795 C272.33313593 161.17564188 270.47061702 168.72204873 268.74023438 176.28515625 C268.32095 178.13732057 267.90221059 179.98960833 267.48397827 181.8420105 C266.37586608 186.74453927 265.26149731 191.64562464 264.14583588 196.54644012 C262.31381736 204.60150565 260.49360531 212.6592543 258.67229843 220.71674728 C258.22310596 222.70369669 257.77369677 224.69059711 257.32406998 226.67744827 C254.65804741 238.46021808 252.02066715 250.24757349 249.48242188 262.05859375 C249.24360291 263.16942322 249.00478394 264.28025269 248.75872803 265.42474365 C247.72034288 270.26858548 246.6922913 275.11441383 245.67578125 279.96289062 C245.33012828 281.58855233 244.98442901 283.21420419 244.63867188 284.83984375 C244.49376312 285.54793182 244.34885437 286.2560199 244.19955444 286.98556519 C243.50426283 290.23520948 242.8336273 292.25444186 240.95898438 295.06640625 C240.26385742 294.70506592 239.56873047 294.34372559 238.85253906 293.97143555 C230.79980197 289.85707702 222.58779243 286.26368542 214.20898438 282.87890625 C213.52821838 282.60282532 212.84745239 282.32674438 212.14605713 282.04229736 C201.47293891 277.72763255 190.71099882 273.71143177 179.83398438 269.94140625 C179.18401489 269.71361481 178.53404541 269.48582336 177.86437988 269.25112915 C170.11146411 266.54643164 162.44222125 264.41270967 154.39404297 262.79541016 C149.8347187 261.82780943 145.37772751 260.57375473 140.89208984 259.31347656 C106.38999133 249.64512399 70.68628546 243.63837947 34.95898438 241.06640625 C34.18393555 241.00855957 33.40888672 240.95071289 32.61035156 240.89111328 C-16.77932526 237.3331139 -66.41042959 241.95211653 -112.04101562 262.06640625 C-112.69779297 262.35483398 -113.35457031 262.64326172 -114.03125 262.94042969 C-123.5605824 267.20722063 -131.78997538 272.75678724 -140.04101562 279.06640625 C-140.7396875 279.58976562 -141.43835937 280.113125 -142.15820312 280.65234375 C-147.62250566 285.0086771 -151.77080125 290.58138952 -156.04101562 296.06640625 C-156.74742187 296.93394531 -157.45382812 297.80148437 -158.18164062 298.6953125 C-166.28283729 309.06917311 -170.83860799 320.93535141 -172.04101562 334.06640625 C-172.11191406 334.80890625 -172.1828125 335.55140625 -172.25585938 336.31640625 C-172.74198737 346.89455136 -169.33892101 357.2291401 -165.02929688 366.73828125 C-164.04101562 369.06640625 -164.04101562 369.06640625 -164.04101562 371.06640625 C-163.38101563 371.06640625 -162.72101562 371.06640625 -162.04101562 371.06640625 C-160.75430285 372.85981976 -159.53955825 374.70488411 -158.35351562 376.56640625 C-154.50470749 382.37925896 -150.13293299 387.49748738 -145.35351562 392.56640625 C-144.72421143 393.23607422 -144.09490723 393.90574219 -143.4465332 394.59570312 C-138.32123635 399.95510265 -133.27504618 404.49653053 -126.7421875 408.07421875 C-124.0498395 409.64449749 -121.70852504 411.60626348 -119.29101562 413.56640625 C-111.00256877 420.11297069 -102.03298586 425.55186675 -93.04101562 431.06640625 C-91.71141446 431.8929492 -90.38197601 432.71975397 -89.05273438 433.546875 C-82.37858667 437.66309328 -75.60612895 441.35147168 -68.55688477 444.78198242 C-62.67212605 447.67734779 -56.98342569 450.87408159 -51.29101562 454.12890625 C-42.45989033 459.17069758 -33.56802465 464.07960052 -24.60351562 468.87890625 C-24.00056671 469.20180634 -23.3976178 469.52470642 -22.77639771 469.85739136 C-16.14219954 473.4048034 -9.48897854 476.89105812 -2.72851562 480.19140625 C12.3149197 487.54783386 26.78826706 496.16142177 40.95898438 505.06640625 C46.52149638 508.52226477 51.90620998 511.57408738 57.95898438 514.06640625 C60.89648438 515.62890625 60.89648438 515.62890625 62.95898438 517.06640625 C62.95898438 517.72640625 62.95898438 518.38640625 62.95898438 519.06640625 C63.63856201 519.30359375 64.31813965 519.54078125 65.01831055 519.78515625 C68.60761639 521.34901487 71.7656498 523.40053559 75.00976562 525.56640625 C75.66857224 526.00275391 76.32737885 526.43910156 77.00614929 526.88867188 C78.39018301 527.80754744 79.77262924 528.72881813 81.15356445 529.65234375 C83.27651143 531.06976264 85.40740315 532.47463428 87.5390625 533.87890625 C88.88396159 534.77399169 90.22838013 535.6697997 91.57226562 536.56640625 C92.21279373 536.98728516 92.85332184 537.40816406 93.51325989 537.84179688 C95.03148282 538.86473187 96.50109276 539.95918048 97.95898438 541.06640625 C97.95898438 541.72640625 97.95898438 542.38640625 97.95898438 543.06640625 C98.69246094 543.33582031 99.4259375 543.60523438 100.18164062 543.8828125 C114.29266119 549.89636979 129.0315592 563.72119517 139.54492188 574.7265625 C142.42681221 577.69321431 145.26344913 580.36753284 148.64648438 582.75390625 C157.52226015 589.24335159 164.80414209 597.50232175 171.31665039 606.29272461 C173.94204337 609.81959849 176.72869564 613.02122217 179.77148438 616.19140625 C189.31756053 626.46135548 197.11512467 638.86367526 203.95898438 651.06640625 C204.41015625 651.84886719 204.86132812 652.63132812 205.32617188 653.4375 C219.03812041 677.78547348 228.77187134 703.79585219 234.77148438 731.06640625 C234.96621338 731.948125 235.16094238 732.82984375 235.36157227 733.73828125 C238.1412001 746.97670249 239.28125709 759.93915046 239.29492188 773.4453125 C239.30138544 774.98868418 239.30811607 776.53205476 239.31509399 778.07542419 C239.32697251 781.29664937 239.33078545 784.5177682 239.32958984 787.73901367 C239.32942866 790.97231755 239.34311351 794.20504656 239.37060547 797.43823242 C239.59262539 823.9842584 238.09920871 849.8121707 231.58398438 875.69140625 C231.13019409 877.55297363 231.13019409 877.55297363 230.66723633 879.45214844 C229.79010879 882.99746435 228.8843907 886.53341752 227.95898438 890.06640625 C227.71422363 891.00129883 227.46946289 891.93619141 227.21728516 892.89941406 C222.13862792 911.84492017 214.97292707 930.40580182 206.39648438 948.03515625 C205.13954717 950.68565426 204.08531006 953.31276063 203.08398438 956.06640625 C194.77949839 977.06586467 178.30219551 998.70227907 163.95898438 1016.06640625 C163.53101562 1016.5876709 163.10304688 1017.10893555 162.66210938 1017.64599609 C154.33105237 1027.7635621 145.85635728 1037.99380943 135.78710938 1046.42578125 C133.21293879 1048.73593434 131.06501695 1051.35079818 128.83325195 1053.98608398 C127.06065166 1055.95356179 125.24102171 1057.67152582 123.23632812 1059.3984375 C122.53427246 1060.00381348 121.8322168 1060.60918945 121.10888672 1061.23291016 C120.04468506 1062.14049072 120.04468506 1062.14049072 118.95898438 1063.06640625 C118.31010254 1063.62118652 117.6612207 1064.1759668 116.99267578 1064.74755859 C102.67910045 1076.89514522 87.4838388 1087.5020587 71.828125 1097.82666016 C69.88011355 1099.11871896 67.94207883 1100.4247192 66.00585938 1101.734375 C49.77375522 1112.69832315 49.77375522 1112.69832315 42.20117188 1115.4140625 C37.84533348 1117.01879216 34.01164099 1119.21789558 30.02148438 1121.56640625 C8.53688894 1133.81609639 -16.20067301 1144.78661774 -40.16210938 1151.01953125 C-44.5362907 1152.16156482 -48.83684928 1153.53466048 -53.15112305 1154.88256836 C-94.39577082 1167.76539424 -136.19956553 1176.33731509 -179.10351562 1181.31640625 C-180.39491455 1181.46746826 -181.68631348 1181.61853027 -183.0168457 1181.77416992 C-187.35491401 1182.25145165 -191.694909 1182.67047047 -196.04101562 1183.06640625 C-196.96208099 1183.15360931 -197.88314636 1183.24081238 -198.8321228 1183.33065796 C-219.43429981 1185.22728553 -239.97284703 1185.40991483 -260.64428711 1185.38208008 C-264.34395599 1185.37747639 -268.04329388 1185.38428632 -271.74291992 1185.40258789 C-305.40817096 1185.56729521 -338.87041204 1183.97293069 -372.29101562 1179.75390625 C-373.13603638 1179.65002594 -373.98105713 1179.54614563 -374.85168457 1179.43911743 C-417.78711717 1174.15052145 -459.73726796 1165.40576377 -501.62214661 1154.68107605 C-506.48014027 1153.443617 -511.34963482 1152.30940073 -516.25048828 1151.25317383 C-527.46224014 1148.80934175 -538.32282805 1145.22426796 -549.22851562 1141.69140625 C-550.07478516 1141.41831635 -550.92105469 1141.14522644 -551.79296875 1140.86386108 C-562.3174706 1137.45446322 -572.68430531 1133.76624043 -582.96386719 1129.67602539 C-588.37043645 1127.52495786 -593.83312215 1125.52898724 -599.29492188 1123.5234375 C-602.04101562 1122.06640625 -602.04101562 1122.06640625 -602.75852966 1120.24113464 C-603.07019339 1117.84178018 -602.84582818 1116.16837718 -602.30688477 1113.8137207 C-602.11760406 1112.96578445 -601.92832336 1112.11784821 -601.73330688 1111.24421692 C-601.51645233 1110.31542221 -601.29959778 1109.3866275 -601.07617188 1108.4296875 C-600.85174408 1107.43454636 -600.62731628 1106.43940521 -600.39608765 1105.41410828 C-599.90166158 1103.22611369 -599.40313192 1101.03904346 -598.90109253 1098.8527832 C-597.80899588 1094.09611413 -596.73654507 1089.33508185 -595.66304016 1084.57418823 C-595.07765327 1081.97852547 -594.49141466 1079.38307009 -593.90397644 1076.78787231 C-590.19210435 1060.37522792 -586.60507945 1043.93512383 -583.0101738 1027.4965477 C-582.30808992 1024.28741216 -581.60494731 1021.0785091 -580.90171051 1017.86962605 C-580.23031807 1014.80595707 -579.55926778 1011.74221324 -578.88832474 1008.67844582 C-578.57758055 1007.25949636 -578.26677946 1005.84055937 -577.95591354 1004.42163658 C-577.2469964 1001.18507482 -576.53994805 997.94812889 -575.83615112 994.71044922 C-575.32080619 992.34866422 -574.79931531 989.98820857 -574.27053833 987.62939453 C-572.85797873 981.24358281 -571.64940612 974.85990339 -570.61352539 968.40478516 C-569.05404649 958.73950302 -567.00272801 949.20749467 -564.88085938 939.65234375 C-564.48600701 937.85885556 -564.09152937 936.06528483 -563.69740295 934.27163696 C-562.87906833 930.55173348 -562.05784024 926.83248651 -561.23413086 923.11376953 C-560.18230495 918.36513462 -559.13550953 913.61540934 -558.09056759 908.86525536 C-557.08478615 904.29392709 -556.07673068 899.72310131 -555.06835938 895.15234375 C-554.78420323 893.86326174 -554.78420323 893.86326174 -554.49430656 892.54813766 C-553.955042 890.10391919 -553.4141848 887.66005882 -552.87280273 885.21630859 C-552.63818832 884.15172928 -552.63818832 884.15172928 -552.39883423 883.06564331 C-551.35795694 878.37797096 -550.22177322 873.72086957 -549.04101562 869.06640625 C-543.51031102 871.78208157 -538.00784664 874.53660375 -532.57617188 877.4453125 C-523.70408755 882.1937649 -514.82317774 886.60994217 -505.56054688 890.54296875 C-502.53262759 891.85361084 -499.59999786 893.24812999 -496.66601562 894.75390625 C-490.13785107 898.07773047 -483.50029738 900.6699015 -476.47851562 902.75390625 C-470.00498918 904.68686789 -463.69533255 906.99092715 -457.35351562 909.31640625 C-421.6810988 922.2758691 -383.17348143 933.95958741 -345.24023438 937.5390625 C-341.04313152 937.94150111 -336.86710236 938.4597133 -332.68554688 939 C-285.15541719 945.13638582 -238.36193174 946.52947085 -191.04101562 938.06640625 C-190.29110352 937.93621094 -189.54119141 937.80601562 -188.76855469 937.671875 C-172.68670251 934.85890326 -157.75745084 930.0699678 -143.04101562 923.06640625 C-142.35587891 922.74236816 -141.67074219 922.41833008 -140.96484375 922.08447266 C-133.04580457 918.31130511 -125.47218696 914.31799004 -118.17773438 909.4140625 C-116.04101562 908.06640625 -116.04101562 908.06640625 -113.04101562 907.06640625 C-113.04101562 906.40640625 -113.04101562 905.74640625 -113.04101562 905.06640625 C-111.52929687 904.015625 -111.52929687 904.015625 -109.35351562 902.75390625 C-89.28513591 889.690527 -77.03275079 868.08799081 -72.04101562 845.06640625 C-68.91512614 828.5788715 -72.12800737 807.491062 -80.89648438 793 C-82.8576714 790.27254648 -84.91528935 787.66680927 -87.04101562 785.06640625 C-87.55019531 784.35742188 -88.059375 783.6484375 -88.58398438 782.91796875 C-92.482914 777.52561878 -97.05488753 772.84441774 -101.72851562 768.12890625 C-102.7099353 767.13358887 -102.7099353 767.13358887 -103.71118164 766.11816406 C-104.33951904 765.49393555 -104.96785645 764.86970703 -105.61523438 764.2265625 C-106.17815186 763.66590088 -106.74106934 763.10523926 -107.32104492 762.52758789 C-109.13096849 760.98998781 -110.91630226 760.10514901 -113.04101562 759.06640625 C-113.7603125 758.34195313 -114.47960938 757.6175 -115.22070312 756.87109375 C-118.9066999 753.20551801 -122.97101657 750.24781563 -127.16601562 747.19140625 C-128.01478271 746.56935303 -128.8635498 745.9472998 -129.73803711 745.30639648 C-134.92476472 741.5311244 -140.15170277 737.9366056 -145.62304688 734.5859375 C-149.05046464 732.43203522 -152.30041137 730.04740387 -155.55664062 727.64453125 C-157.99452136 726.09594034 -160.45212063 725.01997091 -163.1171875 723.92431641 C-166.79195074 722.28559584 -170.20648563 720.1742156 -173.66601562 718.12890625 C-175.35449451 717.14137427 -177.04330893 716.15441582 -178.73242188 715.16796875 C-180.03977295 714.40274902 -180.03977295 714.40274902 -181.37353516 713.62207031 C-189.22708408 709.04191163 -197.13295389 704.55159831 -205.04101562 700.06640625 C-205.83958984 699.61346191 -206.63816406 699.16051758 -207.4609375 698.69384766 C-215.23298529 694.2982078 -223.02805781 690.00844043 -231.04101562 686.06640625 C-244.42420028 679.48244904 -257.30203464 671.94819603 -270.22998047 664.52172852 C-274.31060514 662.1810296 -278.39676079 659.85737893 -282.52929688 657.609375 C-294.50958365 651.09047163 -306.04304356 643.93542513 -317.5559082 636.62524414 C-319.29578263 635.53386992 -321.06750277 634.49240196 -322.86010742 633.48999023 C-323.57980713 633.02020752 -324.29950684 632.5504248 -325.04101562 632.06640625 C-325.04101562 631.40640625 -325.04101562 630.74640625 -325.04101562 630.06640625 C-325.73453125 629.82664062 -326.42804688 629.586875 -327.14257812 629.33984375 C-330.5435787 627.8456036 -333.4187933 625.85131767 -336.41601562 623.69140625 C-341.42758251 620.11938317 -341.42758251 620.11938317 -346.72851562 617.00390625 C-354.53846102 612.43582498 -361.25550003 606.07479763 -368.13085938 600.22241211 C-372.63267153 596.39333817 -377.19976437 592.65341023 -381.79882812 588.94140625 C-384.04101562 587.06640625 -384.04101562 587.06640625 -385.53320312 585.50390625 C-387.06006234 583.9292231 -387.06006234 583.9292231 -389.36914062 582.76171875 C-392.73505702 580.62603495 -395.17348241 577.89996811 -397.79101562 574.94140625 C-398.85189203 573.76415986 -399.91440299 572.58838448 -400.97851562 571.4140625 C-401.75775391 570.55385498 -401.75775391 570.55385498 -402.55273438 569.67626953 C-404.56173489 567.50314791 -406.66755025 565.43969991 -408.79101562 563.37890625 C-412.63450365 559.59808379 -415.94946407 555.53859644 -419.25976562 551.2890625 C-421.34575481 548.68615056 -423.65116321 546.38987387 -426.04101562 544.06640625 C-428.77103607 540.92274634 -430.835829 537.72196077 -432.84570312 534.08203125 C-434.27406748 531.67341685 -435.85957644 529.41364294 -437.47851562 527.12890625 C-446.04101562 515.04175647 -446.04101562 515.04175647 -446.04101562 512.06640625 C-446.70101563 512.06640625 -447.36101562 512.06640625 -448.04101562 512.06640625 C-453.11337276 502.7138564 -458.08504227 493.32274329 -462.47851562 483.62890625 C-462.795625 482.94586426 -463.11273437 482.26282227 -463.43945312 481.55908203 C-465.66163325 476.55083166 -467.02185456 471.50482991 -468.28393555 466.17944336 C-469.0194352 463.15514279 -469.85036899 460.17824915 -470.72460938 457.19140625 C-476.76023375 436.28264327 -480.52417799 414.86347173 -481.04101562 393.06640625 C-481.06147949 392.36870117 -481.08194336 391.67099609 -481.10302734 390.95214844 C-482.0429881 355.35793203 -477.09905831 320.4110586 -467.85009766 286.12695312 C-467.03912784 283.05926525 -466.2956206 279.98025202 -465.55664062 276.89453125 C-464.20314419 271.45740881 -462.4544334 266.28153263 -460.41601562 261.06640625 C-460.06756592 260.16905762 -459.71911621 259.27170898 -459.36010742 258.34716797 C-452.66112361 241.30958323 -444.67364498 225.45898839 -435.50341797 209.6171875 C-432.56734967 204.49597856 -429.79638574 199.28658018 -427.04101562 194.06640625 C-426.38101562 194.06640625 -425.72101563 194.06640625 -425.04101562 194.06640625 C-424.82574219 193.39867187 -424.61046875 192.7309375 -424.38867188 192.04296875 C-422.59430989 188.07976923 -420.11851779 184.8811365 -417.47851562 181.44140625 C-416.67595337 180.38505981 -416.67595337 180.38505981 -415.85717773 179.30737305 C-404.52829215 164.46979486 -404.52829215 164.46979486 -399.72460938 159.828125 C-397.53504689 157.57481979 -395.72790642 155.38988308 -393.84960938 152.890625 C-389.68890774 147.45594061 -384.95889716 142.69057842 -380.10351562 137.87890625 C-379.24822266 137.01587891 -378.39292969 136.15285156 -377.51171875 135.26367188 C-364.27406364 122.06640625 -364.27406364 122.06640625 -360.04101562 122.06640625 C-359.77635498 121.46513916 -359.51169434 120.86387207 -359.23901367 120.24438477 C-357.98869985 117.97129537 -356.87964776 116.83176493 -354.87304688 115.21875 C-354.23383301 114.70078857 -353.59461914 114.18282715 -352.93603516 113.64916992 C-351.90518799 112.8347644 -351.90518799 112.8347644 -350.85351562 112.00390625 C-350.1482373 111.43969971 -349.44295898 110.87549316 -348.71630859 110.29418945 C-343.76475096 106.36103338 -338.74605959 102.51946778 -333.66601562 98.75390625 C-333.03026611 98.28009521 -332.3945166 97.80628418 -331.73950195 97.31811523 C-327.28463017 94.06640625 -327.28463017 94.06640625 -325.04101562 94.06640625 C-325.04101562 93.40640625 -325.04101562 92.74640625 -325.04101562 92.06640625 C-320.93580866 88.85648378 -316.14177162 86.61162254 -311.47851562 84.34375 C-308.23735621 82.6452578 -305.11071686 80.76796151 -301.97851562 78.87890625 C-301.3260083 78.48646729 -300.67350098 78.09402832 -300.0012207 77.68969727 C-296.85350091 75.78955636 -293.72087489 73.8705423 -290.61523438 71.90234375 C-276.78635127 63.23260657 -261.86002931 56.0310815 -246.66235352 50.09692383 C-243.68175034 48.92516952 -240.72563964 47.70018428 -237.76757812 46.47265625 C-203.59002635 32.41795056 -167.13190981 18.65850524 -130.31054688 13.8046875 C-123.54658352 12.9073286 -116.83914641 11.65699212 -110.12063599 10.47436523 C-73.61701198 4.08191536 -37.05078724 0.80907307 0 0 Z " fill="#FFFFFF" transform="translate(2368.041015625,-0.06640625)"/>
<path d="M0 0 C97.68 0 195.36 0 296 0 C291 25 291 25 288.375 36.875 C286.92689564 43.45162165 285.63698434 49.96196531 284.6875 56.625 C282.36796692 72.56457965 278.49204623 88.28496114 275 104 C274.84615845 104.69232727 274.69231689 105.38465454 274.53381348 106.09796143 C273.3506343 111.41933339 272.16428346 116.73999914 270.97808838 122.06069946 C267.52359931 137.56539536 264.11364996 153.07994973 260.72345829 168.59881973 C259.87782968 172.46969224 259.03081071 176.34024554 258.17990112 180.20996094 C253.73246972 200.15077711 253.73246972 200.15077711 250.13378906 220.25585938 C248.31023085 231.77577273 245.62443694 243.14894415 243.14120483 254.54098892 C242.52591967 257.36719004 241.91394546 260.1941039 241.30200768 263.02103138 C236.17290629 286.71547396 230.99388148 310.3992456 225.7956543 334.07861328 C224.45747786 340.17497799 223.12310077 346.2721598 221.79248047 352.37017822 C221.25217128 354.84497243 220.71078524 357.31953173 220.16845703 359.79388428 C219.34780242 363.54270207 218.53263993 367.29267718 217.71875 371.04296875 C217.47435181 372.15521317 217.22995361 373.26745758 216.97814941 374.41340637 C215.59183288 380.83220325 214.48134307 387.24100153 213.51971436 393.73600769 C212.63125315 399.31586232 211.43302903 404.8257934 210.2421875 410.34765625 C209.97829727 411.58506058 209.71440704 412.8224649 209.44252014 414.09736633 C208.73637568 417.4037184 208.0268607 420.70930696 207.31541061 424.01451874 C206.72063157 426.78033842 206.12858421 429.54674038 205.53640652 432.31311798 C201.95595478 449.03535492 198.31622063 465.74353073 194.58279419 482.43229675 C191.84624672 494.66600685 189.13464469 506.90515224 186.44485474 519.14923096 C185.90531963 521.60110824 185.36392682 524.05257761 184.82052612 526.50360107 C184.05513975 529.95707148 183.29640792 533.41194601 182.5390625 536.8671875 C182.31232346 537.883573 182.08558441 538.8999585 181.85197449 539.94714355 C180.69723433 545.2492105 179.7527231 550.52311531 179.02124023 555.90087891 C178.05825519 562.92608467 176.65600952 569.79872453 175.12109375 576.71875 C174.83360578 578.03250571 174.54657753 579.34636208 174.25996399 580.66030884 C173.64564794 583.47212075 173.02822924 586.28322586 172.4083252 589.09381104 C171.41856875 593.58197714 170.4368431 598.07187867 169.45605469 602.56201172 C166.34747367 616.78465531 163.21957169 631.00305333 160.09179401 645.22148514 C158.53923435 652.2807304 156.99060092 659.34083202 155.44410992 666.40140915 C154.51170043 670.65695322 153.57696643 674.91195854 152.63668823 679.16577148 C147.75796035 700.8497559 147.75796035 700.8497559 143.95724487 722.73963928 C142.83951604 730.42884665 141.15486367 737.97681236 139.44235229 745.55239868 C138.4380139 749.99583032 137.45334689 754.44364918 136.46484375 758.890625 C136.15834648 760.2653875 136.15834648 760.2653875 135.84565735 761.66792297 C133.84403926 770.65945466 131.91674408 779.66634206 129.9987793 788.67602539 C127.0231685 802.65324202 123.99340573 816.61644458 120.875 830.5625 C118.41826242 841.55962842 115.98855924 852.56183284 113.63702393 863.58200073 C113.34551338 864.94739023 113.05305034 866.31257685 112.75946045 867.67752075 C111.26471104 874.6351421 109.88137392 881.5923189 108.6953125 888.609375 C106.57771636 900.97594117 103.80423057 913.21549749 101.14100266 925.47333527 C100.5269153 928.30227052 99.91527633 931.13173296 99.30361271 933.96119308 C93.87058032 959.09162129 88.38106869 984.20985099 82.8730011 1009.32392883 C82.33647086 1011.77145286 81.80055671 1014.21911204 81.26530457 1016.66691589 C80.04160639 1022.26207844 78.81083086 1027.85537683 77.55908203 1033.44433594 C77.33277603 1034.46328949 77.10647003 1035.48224304 76.87330627 1036.53207397 C76.46165574 1038.38509508 76.04623236 1040.23728556 75.62559509 1042.08828735 C74.55080066 1046.94999338 73.72441723 1051.78924922 73.0559082 1056.72412109 C72.02367285 1064.21778234 70.50186035 1071.56794416 68.8828125 1078.953125 C68.58095584 1080.34722076 68.27952316 1081.74140839 67.97848511 1083.13568115 C67.19200189 1086.77262474 66.3996216 1090.40825796 65.60595703 1094.04364014 C64.81030778 1097.69363059 64.02073033 1101.34493379 63.23046875 1104.99609375 C61.75288757 1111.81825841 60.26545839 1118.63822855 58.77355957 1125.45727539 C58.07763184 1128.64446404 57.38694905 1131.83272945 56.69824219 1135.02148438 C56.33807591 1136.6758216 55.97774285 1138.33012253 55.6171875 1139.984375 C55.46210724 1140.7090094 55.30702698 1141.4336438 55.14724731 1142.18023682 C54.11401147 1146.88598853 54.11401147 1146.88598853 53 1148 C51.41530178 1148.09702254 49.82625849 1148.12371632 48.2385931 1148.12304783 C46.6837538 1148.1260344 46.6837538 1148.1260344 45.0975036 1148.12908131 C43.9448048 1148.12616847 42.792106 1148.12325563 41.60447693 1148.12025452 C39.78397271 1148.12153615 39.78397271 1148.12153615 37.92669064 1148.12284368 C34.54266124 1148.12421191 31.15868896 1148.1210643 27.77466643 1148.11606562 C24.13115984 1148.11176454 20.48765514 1148.1132073 16.84414673 1148.1139679 C10.52645381 1148.11449335 4.20877119 1148.11134433 -2.10891914 1148.10573006 C-11.24334343 1148.09761794 -20.37776272 1148.09500013 -29.51219022 1148.09374207 C-44.3306394 1148.09155109 -59.14908309 1148.08488978 -73.9675293 1148.07543945 C-88.36596652 1148.06626651 -102.76440225 1148.0591851 -117.1628418 1148.05493164 C-118.04971676 1148.05466892 -118.93659172 1148.05440619 -119.85034169 1148.05413551 C-124.2993402 1148.05283051 -128.74833873 1148.05156679 -133.19733727 1148.05032361 C-170.13156206 1148.03994958 -207.0657806 1148.02233003 -244 1148 C-242.91533718 1139.18689852 -242.91533718 1139.18689852 -242.18725586 1135.80761719 C-242.03296616 1135.08354675 -241.87867645 1134.35947632 -241.7197113 1133.61346436 C-241.55310501 1132.84898987 -241.38649872 1132.08451538 -241.21484375 1131.296875 C-241.03546768 1130.46134094 -240.85609161 1129.62580688 -240.67127991 1128.76495361 C-240.28872726 1126.98618505 -239.90453296 1125.20776885 -239.51879883 1123.4296875 C-238.96025477 1120.85489556 -238.40634175 1118.27914984 -237.85351562 1115.703125 C-235.36856559 1104.15799717 -232.81187158 1092.62893262 -230.24609375 1081.1015625 C-226.40148083 1063.82828052 -222.58083697 1046.54986101 -218.79791546 1029.26295471 C-217.85972863 1024.97592546 -216.91946088 1020.68937438 -215.97460938 1016.40380859 C-215.03366965 1012.13575078 -214.0977825 1007.86661318 -213.16534042 1003.59669113 C-212.81707599 1002.00579235 -212.46712123 1000.41526242 -212.11526871 998.82515335 C-210.51429356 991.58484254 -208.99079957 984.39756322 -208.01342773 977.04150391 C-207.0000104 969.482719 -205.38873112 962.10651433 -203.71515083 954.67218781 C-203.12877226 952.0671569 -202.54889027 949.46074605 -201.97044373 946.85394287 C-201.11194642 942.98627545 -200.25122743 939.11911127 -199.38934326 935.25219727 C-196.87864596 923.97119943 -194.41314975 912.68020759 -191.94140625 901.390625 C-191.55198915 899.6122097 -191.55198915 899.6122097 -191.15470505 897.79786682 C-190.09541861 892.95993253 -189.03624272 888.12197423 -187.97774696 883.28386688 C-186.62417181 877.0972868 -185.26895992 870.91107354 -183.91040039 864.72558594 C-182.56728527 858.61014379 -181.22812101 852.49384862 -179.89167595 846.3769455 C-179.38955395 844.08194319 -178.88605647 841.78724132 -178.38107491 839.49286652 C-175.02698289 824.30016723 -175.02698289 824.30016723 -172.45521545 808.96060181 C-171.54131607 803.01684011 -170.18927116 797.1571508 -168.90234375 791.28515625 C-168.59245877 789.85738663 -168.28291411 788.42954311 -167.97367859 787.00163269 C-167.31160309 783.94813189 -166.64705042 780.89518492 -165.98052979 777.84265137 C-164.92132666 772.99141606 -163.8683966 768.13883065 -162.81591797 763.28613281 C-159.37090122 747.41225025 -155.90283551 731.54345404 -152.41938782 715.67796326 C-151.05193448 709.44977762 -149.68734449 703.22096527 -148.32312679 696.9920702 C-147.20430773 691.88578178 -146.08049686 686.78062464 -144.95283604 681.67628193 C-144.24764503 678.47949538 -143.54667626 675.28179289 -142.84671974 672.08385658 C-142.5238676 670.61307577 -142.19927319 669.142676 -141.87268639 667.67271996 C-140.08239582 659.6107354 -138.60682041 651.57987987 -137.50427246 643.39276123 C-136.65813192 637.69990065 -135.38906325 632.11139727 -134.12109375 626.5 C-133.68450422 624.53574554 -133.2479179 622.57149038 -132.81144428 620.60721016 C-132.34566474 618.51551592 -131.87735344 616.42440308 -131.4083252 614.33343506 C-130.41815143 609.91780926 -129.43625044 605.50036964 -128.45605469 601.08251953 C-128.2040521 599.94690047 -128.2040521 599.94690047 -127.94695854 598.78833961 C-127.60201554 597.2338855 -127.25709016 595.67942748 -126.91218185 594.12496567 C-126.38176066 591.73547683 -125.85070981 589.34612871 -125.31948853 586.95681763 C-121.66494165 570.51632014 -118.04214187 554.06890517 -114.44410992 537.61594772 C-113.32955236 532.5194542 -112.21098145 527.42386695 -111.08904552 522.32899284 C-110.38341855 519.11995801 -109.68171163 515.91007485 -108.98103905 512.69995499 C-108.65851916 511.22570612 -108.33453843 509.75177581 -108.00884438 508.27822495 C-106.31693112 500.61827981 -104.79010046 492.96637801 -103.54760742 485.2199707 C-101.96989486 475.416885 -99.88739342 465.74571968 -97.75390625 456.05078125 C-97.34172156 454.16203072 -96.92993261 452.27319379 -96.51850891 450.38427734 C-95.42890768 445.38678657 -94.33401147 440.39047051 -93.23799896 435.39438248 C-92.10419677 430.22154683 -90.97542126 425.04761464 -89.84619141 419.8737793 C-88.05802762 411.68352795 -86.26722387 403.49385891 -84.47412109 395.3046875 C-82.33790421 385.54807491 -80.20780495 375.79014276 -78.08203125 366.03125 C-77.79629641 364.71974044 -77.51055538 363.40823223 -77.22480774 362.09672546 C-76.69192905 359.65094129 -76.15905623 357.20515583 -75.62619019 354.7593689 C-74.45774473 349.39790601 -73.28791252 344.03674679 -72.1171875 338.67578125 C-71.92852615 337.81130371 -71.73986481 336.94682617 -71.54548645 336.05615234 C-71.36918198 335.24911865 -71.1928775 334.44208496 -71.01123047 333.6105957 C-70.84234314 332.83261627 -70.67345581 332.05463684 -70.49945068 331.25308228 C-70.17682581 329.79768257 -69.84284528 328.34473267 -69.49517822 326.89511108 C-68.44895451 322.47112115 -67.71420728 318.07947969 -67.11621094 313.57177734 C-65.91845067 304.89171396 -64.03631206 296.39981067 -62.140625 287.8515625 C-61.7549397 286.09452446 -61.36971292 284.33738571 -60.98490906 282.58015442 C-60.16840129 278.85599625 -59.34876809 275.13254582 -58.52658081 271.40963745 C-57.23816508 265.57516783 -55.95755674 259.73900106 -54.67797852 253.90258789 C-51.21018886 238.09295856 -47.72704577 222.28671903 -44.23631859 206.48213959 C-42.91953567 200.5197289 -41.60570164 194.55667311 -40.29390907 188.59316254 C-39.54921883 185.2091923 -38.8023401 181.82573677 -38.0501709 178.44342041 C-37.22556033 174.73278994 -36.40711468 171.02084655 -35.58984375 167.30859375 C-35.3542424 166.25710648 -35.11864105 165.2056192 -34.87590027 164.12226868 C-33.71585779 158.82343307 -32.76473178 153.5567643 -32.0378418 148.18041992 C-31.00509788 140.63348004 -29.44846478 133.23821324 -27.8046875 125.8046875 C-27.49259202 124.37570809 -27.18093192 122.94663354 -26.86967468 121.51747131 C-26.04672927 117.74491859 -25.21761079 113.97374938 -24.38707352 110.20286179 C-23.52527835 106.28518206 -22.66917072 102.36625925 -21.81225586 98.44750977 C-19.88276814 89.62992287 -17.94325724 80.81456142 -16 72 C-15.76247009 70.92228333 -15.52494019 69.84456665 -15.2802124 68.73419189 C-12.87316231 57.81831758 -10.43847621 46.90897251 -8 36 C-5.36 24.12 -2.72 12.24 0 0 Z " fill="#FFFFFF" transform="translate(1512,18)"/>
</svg>
